<?xml version="1.0" standalone="no"?>
<!DOCTYPE svg PUBLIC "-//W3C//DTD SVG 1.1//EN" "http://www.w3.org/Graphics/SVG/1.1/DTD/svg11.dtd" >
<svg xmlns="http://www.w3.org/2000/svg" xmlns:xlink="http://www.w3.org/1999/xlink" version="1.1">
<metadata>
Created by FontForge 20170910 at Wed Jun  6 11:24:04 2018
 By Jimmy Wärting
copyright missing
</metadata>
<defs>
<font id="NationalPark-Regular" horiz-adv-x="600" >
  <font-face 
    font-family="National Park"
    font-weight="400"
    font-stretch="normal"
    units-per-em="1000"
    panose-1="0 0 5 0 0 0 0 0 0 0"
    ascent="800"
    descent="-200"
    x-height="492"
    cap-height="700"
    bbox="-175 -285 883 981.25"
    underline-thickness="50"
    underline-position="-100"
    unicode-range="U+0020-2212"
  />
<missing-glyph horiz-adv-x="500" 
d="M410 800v-1000h-317v1000h317zM333 733h-165v-33h65v-37h-66v-33h166v33h-66v37h66v33zM267 604h-100v-104h166v34h-66v70zM233 570v-36h-33v36h33zM333 473h-166v-33h66v-37h-66v-33h100v70h66v33zM333 413h-33v-66h-133v-34h166v100zM333 291h-100v-56h34v23h33v-47
h-100v80h-33v-113h166v113zM333 118h-166v-113h166v113zM300 85v-47h-100v47h100zM333 -18h-166v-33h70l-70 -47v-33h166v33h-102l70 47h32v33z" />
    <glyph glyph-name=".notdef" horiz-adv-x="500" 
d="M410 800v-1000h-317v1000h317zM333 733h-165v-33h65v-37h-66v-33h166v33h-66v37h66v33zM267 604h-100v-104h166v34h-66v70zM233 570v-36h-33v36h33zM333 473h-166v-33h66v-37h-66v-33h100v70h66v33zM333 413h-33v-66h-133v-34h166v100zM333 291h-100v-56h34v23h33v-47
h-100v80h-33v-113h166v113zM333 118h-166v-113h166v113zM300 85v-47h-100v47h100zM333 -18h-166v-33h70l-70 -47v-33h166v33h-102l70 47h32v33z" />
    <glyph glyph-name="A" unicode="A" horiz-adv-x="629" 
d="M581 62c7 -24 -9 -50 -25 -57c-25 -8 -50 7 -58 25l-63 170h-255l-63 -170c-9 -18 -33 -33 -58 -25c-17 7 -33 33 -24 57l232 614c8 15 25 24 41 24c17 0 34 -9 42 -24zM213 288h189l-94 254z" />
    <glyph glyph-name="Aacute" unicode="&#xc1;" horiz-adv-x="656" 
d="M328 773c-12 0 -25 6 -33 16c-16 18 -14 46 4 62l104 88c18 16 46 14 62 -4c16 -19 14 -47 -5 -63l-103 -88c-9 -7 -19 -11 -29 -11zM603 58c9 -23 -2 -48 -25 -57s-48 2 -57 25l-66 168h-257l-63 -168c-6 -17 -23 -28 -41 -28c-5 0 -10 1 -15 3c-23 8 -35 34 -26 56
l229 613c7 17 23 29 41 29h1c18 0 34 -11 41 -28zM231 283h190l-97 248z" />
    <glyph glyph-name="Acircumflex" unicode="&#xc2;" horiz-adv-x="655" 
d="M223 785c-18 -16 -46 -15 -62 3s-14 46 4 62l133 120c17 15 42 15 59 0l133 -120c18 -16 20 -44 4 -62c-9 -10 -21 -14 -33 -14c-11 0 -21 3 -29 11l-105 93zM602 60c9 -23 -3 -48 -25 -57c-23 -9 -48 2 -57 25l-65 168h-257l-63 -168c-6 -17 -23 -28 -41 -28
c-5 0 -10 1 -15 3c-23 8 -35 34 -26 56l229 611c6 17 23 29 41 29s35 -11 41 -28zM231 284h189l-96 247z" />
    <glyph glyph-name="Adieresis" unicode="&#xc4;" horiz-adv-x="657" 
d="M247 778c-24 0 -44 20 -44 44v17c0 25 20 45 44 45c25 0 45 -20 45 -45v-17c0 -24 -20 -44 -45 -44zM409 778c-24 0 -44 20 -44 44v17c0 25 20 45 44 45c25 0 44 -20 44 -45v-17c0 -24 -19 -44 -44 -44zM604 59c9 -22 -3 -48 -25 -57c-23 -9 -49 2 -58 25l-65 169h-258
l-63 -168c-6 -18 -23 -29 -41 -29c-5 0 -10 1 -16 3c-22 8 -34 34 -25 57l229 613c7 17 23 29 42 29c18 0 34 -11 41 -28zM231 284h190l-96 249z" />
    <glyph glyph-name="Agrave" unicode="&#xc0;" horiz-adv-x="657" 
d="M192 874c-19 15 -21 43 -5 62c16 18 44 21 62 5l104 -89c18 -16 20 -43 4 -62c-8 -10 -21 -15 -33 -15c-10 0 -21 3 -29 10zM604 59c8 -23 -3 -48 -26 -57c-22 -9 -48 2 -57 25l-65 168h-257l-63 -167c-7 -18 -24 -29 -42 -29c-5 0 -10 1 -15 3c-23 8 -35 34 -26 57
l230 612c6 18 22 29 41 29c18 0 35 -11 41 -28zM232 284h189l-96 248z" />
    <glyph glyph-name="Amacron" unicode="&#x100;" horiz-adv-x="656" 
d="M230 781c-10 8 -15 20 -15 34c0 24 19 44 43 44l136 -1c24 0 44 -19 44 -44c0 -24 -20 -43 -44 -43h-136c-10 0 -20 4 -28 10zM603 59c9 -23 -2 -48 -25 -57s-48 2 -57 25l-65 168h-257l-63 -167c-7 -18 -24 -29 -42 -29c-5 0 -10 1 -15 3c-23 8 -34 34 -26 57l229 611
c7 17 23 29 41 29h1c18 0 34 -11 41 -28zM232 283h189l-96 248z" />
    <glyph glyph-name="Aring" unicode="&#xc5;" horiz-adv-x="655" 
d="M602 59c9 -22 -2 -48 -25 -57c-22 -9 -48 3 -57 25l-65 168h-257l-62 -167c-7 -18 -24 -29 -41 -29c-5 0 -11 1 -16 3c-23 9 -34 34 -26 57l229 609c-53 19 -91 68 -91 127c0 74 61 135 135 135s134 -61 134 -135c0 -60 -39 -111 -94 -128zM326 842
c-26 0 -47 -21 -47 -47c0 -25 21 -46 47 -46c25 0 46 21 46 46c0 26 -21 47 -46 47zM231 283h189l-96 248z" />
    <glyph glyph-name="Atilde" unicode="&#xc3;" horiz-adv-x="655" 
d="M154 779c-73 28 14 152 106 152c76 0 95 -66 135 -66c33 0 57 80 107 52c62 -35 -23 -142 -107 -142c-76 0 -89 67 -135 67c-48 0 -47 -86 -106 -63zM602 59c9 -23 -2 -48 -25 -57c-22 -9 -48 2 -57 25l-65 168h-256l-63 -168c-7 -17 -24 -28 -42 -28c-5 0 -10 1 -15 3
c-23 8 -34 33 -26 56l229 611c9 23 24 29 43 29c17 0 33 -11 39 -28zM231 283h189l-96 248z" />
    <glyph glyph-name="AE" unicode="&#xc6;" horiz-adv-x="933" 
d="M840 92c24 0 43 -19 43 -44c0 -24 -19 -43 -43 -43h-400c-24 0 -43 19 -43 43v276h-131l-133 -298c-7 -16 -22 -25 -39 -26c-6 0 -12 1 -18 4c-22 10 -32 35 -23 57l273 613c7 15 21 25 37 26h442c24 0 43 -20 43 -44s-19 -43 -43 -43h-321v-202h266c24 0 44 -19 44 -43
s-20 -44 -44 -44h-266v-232h356zM304 411h93v202h-3z" />
    <glyph glyph-name="B" unicode="B" horiz-adv-x="574" 
d="M531 203c0 -111 -89 -201 -200 -203h-2h-235c-24 0 -44 19 -44 44v1v1v612c0 23 19 41 43 42h1h235h6c96 -7 172 -86 172 -183c0 -55 -25 -107 -64 -142c53 -38 88 -102 88 -172zM422 517c0 54 -44 98 -99 98h-186v-202h186c55 0 99 50 99 104zM327 86
c66 0 117 53 117 117c0 66 -51 125 -117 125h-190v-242h190z" />
    <glyph glyph-name="C" unicode="C" 
d="M320 0c88 0 210 61 228 227c9 27 -9 53 -35 53s-44 -9 -44 -35c-17 -123 -96 -158 -149 -158c-131 0 -183 132 -183 263c0 96 26 262 175 262c78 0 131 -61 131 -105c0 -26 26 -43 44 -43c26 0 43 17 43 43c0 105 -96 193 -218 193c-158 0 -263 -131 -263 -350
s105 -350 271 -350z" />
    <glyph glyph-name="Ccedilla" unicode="&#xc7;" 
d="M517 279c25 -3 41 -26 38 -50c-23 -158 -122 -224 -210 -236v-13c53 -18 92 -69 92 -129c0 -75 -62 -136 -137 -136c-24 0 -44 20 -44 45c0 24 20 44 44 44c26 0 47 22 47 47c0 26 -21 47 -47 47c-24 0 -44 20 -44 45v55c-130 30 -211 161 -211 351
c0 225 100 359 268 359c119 0 224 -93 224 -200c0 -25 -20 -45 -45 -45c-24 0 -44 20 -44 45c0 51 -59 111 -135 111c-155 0 -178 -169 -178 -270c0 -130 47 -269 181 -269c61 0 133 43 151 162c3 24 26 41 50 37z" />
    <glyph glyph-name="D" unicode="D" horiz-adv-x="569" 
d="M534 350c0 -201 -97 -332 -254 -348c-4 -1 -8 -2 -12 -2h-175c-24 0 -43 20 -43 43v608v3v3c0 24 19 43 43 43h175h2c161 -4 264 -140 264 -350zM245 88c182 0 201 183 201 262c0 126 -47 263 -182 263h-127v-525h108z" />
    <glyph glyph-name="E" unicode="E" horiz-adv-x="590" 
d="M496 88c27 0 44 -18 44 -44c0 -18 -17 -44 -44 -44h-402c-26 0 -44 26 -44 44v613c0 7 1 14 4 19c6 15 21 24 40 24h367c27 0 44 -17 44 -44c0 -26 -17 -43 -44 -43h-323v-202h227c26 0 44 -26 44 -43c0 -27 -18 -44 -44 -44h-227v-236h358z" />
    <glyph glyph-name="Eacute" unicode="&#xc9;" horiz-adv-x="589" 
d="M290 770c-12 0 -25 5 -33 15c-16 18 -14 46 4 62l103 88c18 15 46 13 62 -5c16 -19 13 -46 -5 -62l-103 -88c-8 -7 -18 -10 -28 -10zM495 87c25 0 44 -19 44 -43c0 -25 -19 -44 -44 -44h-401c-24 0 -44 19 -44 44v606c0 9 3 18 8 25c7 14 22 24 39 24h363
c24 0 44 -20 44 -44s-20 -44 -44 -44h-322v-204h226c24 0 44 -20 44 -44s-20 -44 -44 -44h-226v-232h357z" />
    <glyph glyph-name="Ecircumflex" unicode="&#xca;" horiz-adv-x="589" 
d="M145 770c-12 0 -24 5 -32 15c-17 18 -15 46 3 62l133 119c17 15 42 15 58 0l133 -119c18 -16 20 -44 4 -62s-44 -20 -62 -4l-104 93l-104 -93c-8 -7 -18 -11 -29 -11zM495 87c24 0 44 -19 44 -43c0 -25 -20 -44 -44 -44h-401c-25 0 -44 19 -44 44v606c0 9 3 18 8 25
c7 14 21 24 38 24h364c24 0 44 -20 44 -44s-20 -44 -44 -44h-323v-204h227c24 0 44 -20 44 -44s-20 -44 -44 -44h-227v-232h358z" />
    <glyph glyph-name="Edieresis" unicode="&#xcb;" horiz-adv-x="590" 
d="M198 774c-24 0 -43 20 -43 44v17c0 24 19 43 43 43c25 0 44 -19 44 -43v-17c0 -24 -19 -44 -44 -44zM359 774c-24 0 -44 20 -44 44v17c0 24 20 43 44 43s44 -19 44 -43v-17c0 -24 -20 -44 -44 -44zM496 89c24 0 44 -20 44 -44s-20 -44 -44 -44h-402c-24 0 -44 20 -44 44
v606c0 10 3 19 9 27c7 13 22 22 38 22h363c25 0 44 -20 44 -44s-19 -44 -44 -44h-322v-204h227c24 0 43 -20 43 -44s-19 -44 -43 -44h-227v-231h358z" />
    <glyph glyph-name="Egrave" unicode="&#xc8;" horiz-adv-x="589" 
d="M164 868c-19 16 -21 44 -5 62s43 21 62 5l102 -88c19 -16 21 -43 5 -62c-9 -10 -21 -15 -33 -15c-10 0 -20 3 -29 10zM496 88c24 0 43 -20 43 -44s-19 -44 -43 -44h-402c-24 0 -44 20 -44 44v606c0 9 3 18 8 25c7 14 22 24 39 24h363c24 0 44 -20 44 -44s-20 -44 -44 -44
h-322v-204h226c25 0 44 -20 44 -44s-19 -44 -44 -44h-226v-231h358z" />
    <glyph glyph-name="Emacron" unicode="&#x112;" horiz-adv-x="590" 
d="M183 783c-10 8 -16 20 -16 33c0 25 20 44 44 44h136c24 0 44 -20 44 -44s-20 -44 -44 -44h-136c-11 0 -21 4 -28 11zM496 88c24 0 44 -19 44 -44c0 -24 -20 -43 -44 -43h-402c-24 0 -44 19 -44 43v607c0 10 3 19 9 27c7 13 22 22 38 22h364c24 0 44 -20 44 -44
s-20 -44 -44 -44h-323v-204h227c24 0 44 -20 44 -44s-20 -44 -44 -44h-227v-232h358z" />
    <glyph glyph-name="F" unicode="F" horiz-adv-x="528" 
d="M484 700c27 0 44 -22 44 -45s-17 -44 -44 -44h-345v-203h238c26 0 45 -20 45 -44c0 -22 -19 -45 -45 -45h-238v-275c0 -26 -18 -44 -45 -44c-26 0 -44 18 -44 44v612c0 26 17 44 44 44h390z" />
    <glyph glyph-name="G" unicode="G" 
d="M319 -12c142 0 231 88 231 204v115c0 27 -18 44 -44 44h-150c-24 0 -45 -20 -45 -44c0 -26 21 -44 45 -44h105v-71c0 -67 -53 -115 -142 -115c-127 0 -178 119 -178 254c0 155 80 290 178 290c101 0 125 -80 132 -97c11 -26 32 -40 56 -36c27 5 40 29 33 54
c-18 65 -75 168 -221 168c-186 0 -267 -207 -267 -376c0 -178 98 -346 267 -346z" />
    <glyph glyph-name="H" unicode="H" horiz-adv-x="590" 
d="M496 700c28 0 44 -26 44 -44v-612c0 -26 -18 -44 -44 -44s-44 18 -44 44v280h-314v-280c0 -26 -16 -44 -43 -44c-28 0 -45 18 -45 44v612c0 18 16 44 45 44c28 0 43 -26 43 -44v-245h314v245c0 18 16 44 44 44z" />
    <glyph glyph-name="I" unicode="I" horiz-adv-x="189" 
d="M94 0c27 0 45 18 45 44v612c0 26 -18 44 -45 44c-26 0 -44 -18 -44 -44v-612c0 -26 18 -44 44 -44z" />
    <glyph glyph-name="Iacute" unicode="&#xcd;" horiz-adv-x="311" 
d="M114 771c10 0 21 4 29 11l103 88c18 16 20 43 4 62c-15 18 -43 21 -61 5l-103 -88c-19 -16 -21 -44 -5 -62c9 -10 21 -16 33 -16zM94 0c24 0 44 20 44 44v611c0 25 -20 44 -44 44s-44 -19 -44 -44v-611c0 -24 20 -44 44 -44z" />
    <glyph glyph-name="Icircumflex" unicode="&#xce;" horiz-adv-x="454" 
d="M360 772c12 0 24 5 33 15c16 18 15 46 -3 62l-133 119c-17 15 -42 15 -59 0l-133 -119c-18 -16 -20 -44 -4 -62s44 -20 62 -3l104 93l104 -93c8 -8 19 -12 29 -12zM227 0c24 0 44 20 44 44v612c0 24 -20 44 -44 44s-44 -20 -44 -44v-612c0 -24 20 -44 44 -44z" />
    <glyph glyph-name="Idieresis" unicode="&#xcf;" horiz-adv-x="349" 
d="M94 775c24 0 44 20 44 44v17c0 24 -20 44 -44 44s-44 -20 -44 -44v-17c0 -24 20 -44 44 -44zM255 775c24 0 44 20 44 44v17c0 24 -20 44 -44 44s-44 -20 -44 -44v-17c0 -24 20 -44 44 -44zM174 0c25 0 44 20 44 44v612c0 24 -19 44 -44 44c-24 0 -43 -20 -43 -44v-612
c0 -24 19 -44 43 -44z" />
    <glyph glyph-name="Igrave" unicode="&#xcc;" horiz-adv-x="290" 
d="M196 772c13 0 25 5 34 15c15 18 13 46 -5 62l-103 88c-18 16 -46 13 -62 -5s-13 -46 5 -62l103 -88c8 -7 18 -10 28 -10zM196 0c25 0 44 20 44 44v611c0 25 -19 44 -44 44c-24 0 -44 -19 -44 -44v-611c0 -24 20 -44 44 -44z" />
    <glyph glyph-name="Imacron" unicode="&#x12a;" horiz-adv-x="323" 
d="M66 782c7 -7 17 -11 28 -11h135c25 0 44 20 44 44s-19 44 -44 44h-135c-24 0 -44 -20 -44 -44c0 -13 6 -25 16 -33zM162 0c24 0 44 19 44 43v612c0 24 -20 44 -44 44s-44 -20 -44 -44v-612c0 -24 20 -43 44 -43z" />
    <glyph glyph-name="J" unicode="J" horiz-adv-x="476" 
d="M242 0c117 0 184 97 184 202v453c0 26 -16 45 -43 45c-26 0 -44 -19 -44 -45v-453c0 -35 -14 -114 -97 -114c-32 0 -105 9 -105 104v51c0 26 -18 46 -43 46c-24 0 -44 -20 -44 -46v-51c0 -95 70 -192 192 -192z" />
    <glyph glyph-name="K" unicode="K" horiz-adv-x="587" 
d="M527 73c16 -23 14 -52 -8 -66c-23 -14 -49 -6 -66 19l-214 314l-101 -103v-191c0 -26 -18 -46 -44 -46c-25 0 -44 20 -44 46v608c0 26 19 46 44 46s44 -20 44 -46v-293l302 309c19 19 46 23 66 4c18 -18 16 -44 -5 -65l-203 -208z" />
    <glyph glyph-name="L" unicode="L" horiz-adv-x="596" 
d="M500 88c26 0 46 -19 46 -44s-20 -44 -46 -44h-406c-26 0 -44 17 -44 44v610c0 26 19 46 45 46c25 0 44 -20 44 -46v-566h361z" />
    <glyph glyph-name="M" unicode="M" horiz-adv-x="708" 
d="M346 0c-35 0 -48 33 -55 50l-154 500v-505c0 -26 -20 -45 -44 -45s-43 19 -43 45v610c0 26 20 45 45 45h49c17 0 33 -10 39 -27l163 -500l164 500c6 17 22 27 39 27h49c25 0 45 -19 45 -45v-610c0 -26 -19 -45 -43 -45s-44 19 -44 45v505l-154 -500
c-7 -17 -20 -50 -56 -50z" />
    <glyph glyph-name="N" unicode="N" horiz-adv-x="596" 
d="M490 0c26 0 43 18 43 43v612c0 25 -18 45 -43 45c-24 0 -43 -20 -43 -45v-493l-267 505c-15 29 -36 33 -52 33h-35c-25 0 -43 -18 -43 -43v-612c0 -25 19 -45 44 -45c24 0 43 20 43 45v509l279 -512c12 -22 21 -42 49 -42h25z" />
    <glyph glyph-name="Nacute" unicode="&#x143;" horiz-adv-x="589" 
d="M291 770c10 0 20 3 28 10l103 88c18 16 21 43 5 62c-16 18 -44 20 -62 5l-103 -88c-18 -16 -20 -44 -4 -62c8 -10 21 -15 33 -15zM495 0c25 0 44 20 44 44v611c0 25 -19 44 -44 44c-24 0 -44 -19 -44 -44v-487l-281 509c-8 14 -22 22 -38 22h-38c-24 0 -44 -19 -44 -44
v-611c0 -24 20 -44 44 -44s44 20 44 44v509l294 -530c7 -14 22 -23 38 -23h25z" />
    <glyph glyph-name="Ntilde" unicode="&#xd1;" horiz-adv-x="589" 
d="M362 775c84 0 169 107 107 142c-50 28 -74 -52 -107 -52c-40 0 -59 66 -135 66c-92 0 -179 -124 -106 -152c59 -23 58 63 106 63c46 0 59 -67 135 -67zM495 0c25 0 44 20 44 44v611c0 25 -19 44 -44 44c-24 0 -44 -19 -44 -44v-487l-281 509c-8 14 -22 22 -38 22h-38
c-24 0 -44 -19 -44 -44v-611c0 -24 20 -44 44 -44s44 20 44 44v509l294 -530c7 -14 22 -23 38 -23h25z" />
    <glyph glyph-name="O" unicode="O" horiz-adv-x="641" 
d="M320 -10c152 0 276 161 276 359s-124 360 -276 360s-275 -162 -275 -360s123 -359 275 -359zM320 619c103 0 186 -121 186 -270s-83 -270 -186 -270c-102 0 -186 121 -186 270s84 270 186 270z" />
    <glyph glyph-name="Oacute" unicode="&#xd3;" 
d="M295 774c11 0 21 3 30 10l104 90c19 16 21 45 5 63c-16 19 -44 21 -63 5l-105 -89c-19 -17 -21 -45 -5 -64c9 -10 22 -15 34 -15zM300 0c152 0 276 162 276 360s-124 359 -276 359s-275 -161 -275 -359s123 -360 275 -360zM300 630c103 0 186 -121 186 -270
s-83 -270 -186 -270c-102 0 -186 121 -186 270s84 270 186 270z" />
    <glyph glyph-name="Ocircumflex" unicode="&#xd4;" 
d="M435 764c12 0 25 5 33 15c17 18 15 47 -3 63l-136 122c-17 15 -43 15 -60 0l-136 -122c-18 -16 -20 -45 -3 -63c16 -19 45 -20 63 -4l106 95l106 -95c9 -7 19 -11 30 -11zM299 -10c152 0 276 161 276 360c0 198 -124 359 -276 359s-275 -161 -275 -359
c0 -199 123 -360 275 -360zM299 620c103 0 186 -122 186 -270c0 -149 -83 -270 -186 -270c-102 0 -186 121 -186 270c0 148 84 270 186 270z" />
    <glyph glyph-name="Odieresis" unicode="&#xd6;" 
d="M219 766c25 0 45 20 45 45v17c0 25 -20 45 -45 45s-45 -20 -45 -45v-17c0 -25 20 -45 45 -45zM383 766c25 0 45 20 45 45v17c0 25 -20 45 -45 45s-45 -20 -45 -45v-17c0 -25 20 -45 45 -45zM301 -11c152 0 275 162 275 360s-123 360 -275 360s-276 -162 -276 -360
s124 -360 276 -360zM301 619c102 0 186 -121 186 -270s-84 -270 -186 -270c-103 0 -186 121 -186 270s83 270 186 270z" />
    <glyph glyph-name="Ograve" unicode="&#xd2;" 
d="M299 763c13 0 25 6 34 16c16 19 14 47 -5 63l-104 90c-19 16 -48 14 -64 -5s-14 -47 5 -63l105 -90c9 -7 19 -11 29 -11zM299 -10c152 0 276 161 276 359c0 199 -124 360 -276 360s-275 -161 -275 -360c0 -198 123 -359 275 -359zM299 619c103 0 186 -121 186 -270
c0 -148 -83 -269 -186 -269c-102 0 -186 121 -186 269c0 149 84 270 186 270z" />
    <glyph glyph-name="Otilde" unicode="&#xd5;" 
d="M373 775c84 0 169 107 107 142c-50 28 -74 -52 -107 -52c-40 0 -59 66 -135 66c-92 0 -179 -124 -106 -152c59 -23 58 63 106 63c46 0 59 -67 135 -67zM300 -10c152 0 276 161 276 360c0 198 -124 359 -276 359s-275 -161 -275 -359c0 -199 123 -360 275 -360zM300 620
c103 0 186 -121 186 -270s-83 -270 -186 -270c-102 0 -186 121 -186 270s84 270 186 270z" />
    <glyph glyph-name="OE" unicode="&#x152;" 
d="M730 88c25 0 44 -20 44 -44s-19 -44 -44 -44h-402c-24 0 -44 20 -44 44v45c-49 -59 -114 -95 -185 -95c-151 0 -274 161 -274 358s123 357 274 357c71 0 136 -36 185 -95v37c0 10 3 19 9 27c7 13 22 22 38 22h364c24 0 44 -20 44 -44s-20 -44 -44 -44h-323v-204h227
c24 0 44 -20 44 -44c0 -25 -20 -44 -44 -44h-227v-232h358zM99 83c101 0 184 121 184 269c0 147 -83 268 -184 268c-102 0 -185 -121 -185 -268c0 -148 83 -269 185 -269z" />
    <glyph glyph-name="P" unicode="P" horiz-adv-x="572" 
d="M334 700c106 0 203 -89 203 -204s-97 -204 -203 -204h-195v-246c0 -26 -19 -46 -44 -46c-26 0 -45 20 -45 46v610c0 26 18 44 44 44h240zM334 381c62 0 115 53 115 115s-53 115 -115 115h-195v-230h195z" />
    <glyph glyph-name="Q" unicode="Q" horiz-adv-x="650" 
d="M549 87c52 58 114 -1 73 -54c-16 -21 -33 -46 -65 -46c-25 0 -41 17 -76 44c-7 5 -14 11 -22 17c-45 -38 -98 -61 -155 -61c-155 0 -282 165 -282 364c0 201 127 364 282 364c154 0 281 -163 281 -364c0 -90 -26 -173 -69 -237zM304 79c31 0 60 10 86 27l-85 73
c-21 18 -25 44 -10 63s42 18 63 1l90 -74c30 48 47 111 47 182c0 155 -82 274 -191 274c-100 0 -192 -119 -192 -274s92 -272 192 -272z" />
    <glyph glyph-name="R" unicode="R" horiz-adv-x="601" 
d="M545 65c12 -25 4 -51 -19 -61s-47 -2 -59 22l-147 302h-181v-282c0 -26 -19 -46 -44 -46c-26 0 -45 20 -45 46v610c0 26 18 44 44 44h266c98 0 186 -80 186 -186c0 -86 -58 -155 -133 -178zM139 611v-195h221c53 0 98 45 98 98s-45 97 -98 97h-221z" />
    <glyph glyph-name="S" unicode="S" horiz-adv-x="561" 
d="M298 0c123 0 238 66 238 194c0 153 -134 173 -230 191c-120 23 -171 50 -171 115c0 40 26 116 154 116c75 0 104 -59 129 -99c11 -18 27 -33 49 -28c26 6 41 34 28 62c-31 70 -91 149 -206 149c-172 0 -239 -110 -239 -200c0 -151 139 -174 239 -193
c119 -22 162 -37 162 -113c0 -34 -25 -109 -153 -109c-90 0 -142 66 -165 108c-11 19 -29 29 -50 22c-27 -8 -36 -38 -21 -68c47 -103 152 -147 236 -147z" />
    <glyph glyph-name="T" unicode="T" horiz-adv-x="584" 
d="M513 700c26 0 46 -18 46 -43s-20 -44 -46 -44h-173v-567c0 -26 -18 -46 -43 -46c-26 0 -44 20 -44 46v567h-182c-26 0 -46 19 -46 44s20 43 46 43h442z" />
    <glyph glyph-name="U" unicode="U" horiz-adv-x="590" 
d="M497 700c25 0 43 -20 43 -46v-420c0 -150 -105 -234 -245 -234c-131 0 -245 84 -245 234v420c0 26 19 46 44 46s44 -20 44 -46v-420c0 -87 70 -146 157 -146c88 0 158 59 158 146v420c0 26 19 46 44 46z" />
    <glyph glyph-name="Uacute" unicode="&#xda;" horiz-adv-x="595" 
d="M302 772c-13 0 -25 5 -34 15c-16 19 -13 46 5 62l103 88c19 16 46 14 62 -4c16 -19 14 -47 -5 -63l-103 -88c-8 -7 -18 -10 -28 -10zM501 700c24 0 44 -19 44 -44v-433c0 -4 -1 -8 -2 -12c-14 -122 -119 -218 -246 -218c-126 0 -231 95 -245 218c-1 4 -2 8 -2 12v434
c0 24 19 43 44 43c24 0 44 -19 44 -43v-417c0 -88 71 -159 159 -159s160 71 160 159v416c0 25 19 44 44 44z" />
    <glyph glyph-name="Ucircumflex" unicode="&#xdb;" horiz-adv-x="595" 
d="M164 772c-12 0 -24 5 -33 15c-16 18 -15 46 3 62l134 120c17 15 42 15 59 0l133 -120c18 -16 20 -44 4 -62c-17 -19 -44 -20 -63 -4l-104 94l-104 -94c-8 -7 -19 -11 -29 -11zM501 700c24 0 44 -20 44 -44v-433c0 -4 -1 -8 -2 -12c-14 -123 -119 -219 -246 -219
c-126 0 -231 96 -245 219c-1 4 -2 8 -2 12v434c0 24 19 43 44 43c24 0 44 -19 44 -43v-417c0 -88 71 -159 159 -159s160 71 160 159v416c0 24 19 44 44 44z" />
    <glyph glyph-name="Udieresis" unicode="&#xdc;" horiz-adv-x="596" 
d="M217 774c-24 0 -44 20 -44 44v17c0 25 20 44 44 44c25 0 45 -19 45 -44v-17c0 -24 -20 -44 -45 -44zM379 774c-24 0 -44 20 -44 44v17c0 25 20 44 44 44s44 -19 44 -44v-17c0 -24 -20 -44 -44 -44zM502 700c24 0 44 -20 44 -44v-433c0 -4 -1 -8 -2 -12
c-14 -124 -119 -219 -246 -219c-126 0 -232 96 -246 219c-1 4 -2 8 -2 12v433c0 25 20 44 45 44c24 0 44 -19 44 -44v-416c0 -88 71 -160 159 -160s160 72 160 160v416c0 24 19 44 44 44z" />
    <glyph glyph-name="Ugrave" unicode="&#xd9;" horiz-adv-x="596" 
d="M166 869c-18 16 -21 44 -5 63c16 18 44 20 62 4l104 -88c18 -16 20 -43 4 -62c-8 -10 -21 -15 -33 -15c-10 0 -20 3 -29 10zM501 700c25 0 45 -20 45 -45v-433c0 -4 -1 -8 -2 -12c-14 -122 -120 -218 -246 -218c-127 0 -232 96 -246 218c-1 4 -2 8 -2 12v434
c0 24 20 44 44 44c25 0 44 -20 44 -44v-417c0 -88 72 -159 160 -159s159 71 159 159v416c0 25 20 45 44 45z" />
    <glyph glyph-name="Umacron" unicode="&#x16a;" horiz-adv-x="595" 
d="M201 782c-9 8 -15 20 -15 33c0 24 19 44 44 44h135c24 0 44 -20 44 -44s-20 -44 -44 -44h-135c-11 0 -21 4 -29 11zM501 700c24 0 44 -20 44 -44v-433c0 -4 -1 -8 -2 -12c-14 -124 -119 -219 -246 -219c-126 0 -231 96 -245 219c-1 4 -2 8 -2 12v433c0 25 19 44 44 44
c24 0 44 -19 44 -44v-416c0 -88 71 -160 159 -160s160 72 160 160v416c0 24 19 44 44 44z" />
    <glyph glyph-name="V" unicode="V" 
d="M301 166l-183 503c-9 24 -31 36 -54 28s-33 -33 -24 -58l217 -613c9 -17 26 -26 44 -26c17 0 35 9 43 26l219 611c9 26 -1 52 -27 60s-49 -3 -58 -28z" />
    <glyph glyph-name="W" unicode="W" horiz-adv-x="801" 
d="M691 668c15 56 100 34 83 -31l-156 -605c-5 -19 -21 -32 -41 -32h-3c-19 0 -36 13 -41 31l-132 462l-132 -462c-5 -18 -22 -31 -41 -31h-3c-20 0 -36 13 -41 32l-156 605c-19 71 69 85 83 31l119 -458l128 459c5 19 19 31 35 31h16c16 0 30 -12 35 -31l128 -459z" />
    <glyph glyph-name="X" unicode="X" horiz-adv-x="585" 
d="M541 72c15 -22 11 -48 -9 -63c-21 -15 -48 -10 -63 12l-177 253l-176 -252c-15 -22 -42 -28 -62 -13c-21 15 -25 41 -10 63l195 279l-194 277c-15 22 -11 48 10 63c20 15 47 9 62 -13l175 -251l176 252c16 22 43 27 63 12s25 -41 9 -63l-194 -277z" />
    <glyph glyph-name="Y" unicode="Y" horiz-adv-x="597" 
d="M544 691c21 -16 24 -42 7 -64l-221 -289v-292c0 -26 -18 -46 -43 -46c-26 0 -44 20 -44 46v293l-199 292c-15 22 -12 49 8 62s46 7 60 -14l174 -256l196 258c16 21 42 25 62 10z" />
    <glyph glyph-name="Ydieresis" unicode="&#x178;" 
d="M217 774c-24 0 -44 20 -44 44v17c0 25 20 44 44 44c25 0 45 -19 45 -44v-17c0 -24 -20 -44 -45 -44zM379 774c-24 0 -44 20 -44 44v17c0 25 20 44 44 44s44 -19 44 -44v-17c0 -24 -20 -44 -44 -44zM547 691c20 -14 24 -42 9 -61l-218 -293v-293c0 -24 -20 -44 -44 -44
c-25 0 -44 20 -44 44v293l-206 294c-14 20 -9 47 11 61s47 9 61 -11l179 -255l191 256c14 20 42 24 61 9z" />
    <glyph glyph-name="Z" unicode="Z" 
d="M495 0c26 0 46 20 46 45s-20 44 -46 44h-316l354 540c17 34 -7 71 -35 71h-361c-26 0 -46 -19 -46 -44c0 -26 20 -45 46 -45h281l-354 -540c-15 -29 0 -71 35 -71h396z" />
    <glyph glyph-name="a" unicode="a" horiz-adv-x="530" 
d="M442 82c35 -1 53 -17 53 -42c0 -27 -18 -40 -54 -40c-30 0 -62 16 -77 49c-35 -25 -85 -49 -145 -49c-117 0 -169 69 -169 139c0 72 59 159 188 159c72 0 115 20 116 47c-1 51 -25 73 -100 73c-38 0 -65 -8 -82 -25c-27 -27 -20 -68 -59 -68c-28 0 -39 18 -39 41
c0 35 34 134 180 134c115 0 182 -60 182 -168v-5c1 -111 1 -192 1 -230c0 -7 0 -15 5 -15zM219 82c70 0 120 51 136 69v88c-28 -13 -66 -22 -117 -22c-86 0 -106 -51 -106 -78c0 -37 32 -57 87 -57z" />
    <glyph glyph-name="aacute" unicode="&#xe1;" horiz-adv-x="558" 
d="M280 606c-12 0 -23 5 -32 15c-15 18 -13 44 5 59l98 85c18 15 45 13 60 -5s13 -44 -5 -59l-98 -85c-8 -7 -18 -10 -28 -10zM466 85c23 0 42 -19 42 -42c0 -24 -19 -43 -42 -43h-14c-24 0 -59 13 -77 46c-36 -27 -88 -52 -151 -52c-120 0 -174 72 -174 143
c0 68 60 164 194 164c99 0 116 39 119 47c-3 39 -19 76 -103 76c-38 0 -68 -9 -85 -26c-13 -13 -16 -26 -16 -28c0 -23 -19 -41 -42 -41s-42 19 -42 42c0 36 34 138 185 138c119 0 187 -63 187 -171v-1v-6c1 -114 2 -199 2 -238c0 -5 1 -7 1 -7c0 -1 2 -1 3 -1h13zM224 78
c71 0 123 52 140 71v90c-29 -13 -68 -22 -120 -22c-89 0 -109 -59 -109 -80c0 -37 32 -59 89 -59z" />
    <glyph glyph-name="acircumflex" unicode="&#xe2;" horiz-adv-x="558" 
d="M180 624c-18 -15 -44 -14 -60 3c-15 18 -14 44 3 60l128 115c16 14 41 14 57 0l128 -115c17 -16 18 -42 3 -60c-9 -9 -20 -14 -32 -14c-10 0 -20 4 -28 11l-100 90zM466 85c24 0 42 -19 42 -42c0 -24 -18 -43 -42 -43h-13c-25 0 -60 14 -77 46c-37 -26 -88 -52 -152 -52
c-120 0 -174 72 -174 143c0 68 60 164 194 164c98 0 116 39 119 47c-3 39 -20 76 -102 76c-39 0 -69 -9 -86 -26c-13 -13 -15 -26 -16 -28c0 -23 -19 -41 -42 -41s-42 19 -42 42c0 36 34 138 186 138c118 0 186 -63 186 -171v-1v-5c2 -115 2 -200 2 -239c0 -5 1 -7 1 -7
c1 -1 2 -1 4 -1h12zM224 78c72 0 124 52 141 71c-1 25 -1 55 -1 90c-29 -13 -68 -22 -120 -22c-89 0 -109 -59 -109 -80c0 -37 32 -59 89 -59z" />
    <glyph glyph-name="adieresis" unicode="&#xe4;" horiz-adv-x="558" 
d="M209 614c-23 0 -42 18 -42 42v16c0 23 19 42 42 42s42 -19 42 -42v-16c0 -24 -19 -42 -42 -42zM363 614c-23 0 -42 18 -42 42v16c0 23 19 42 42 42c24 0 43 -19 43 -42v-16c0 -24 -19 -42 -43 -42zM466 85c24 0 42 -19 42 -43c0 -23 -18 -42 -42 -42h-14
c-24 0 -59 14 -76 46c-37 -26 -88 -52 -152 -52c-120 0 -174 72 -174 143c0 68 60 164 194 164c99 0 116 39 119 47c-3 39 -19 76 -102 76c-39 0 -69 -9 -86 -26c-13 -13 -15 -26 -16 -28c0 -23 -19 -41 -42 -41s-42 19 -42 42c0 36 34 138 186 138c118 0 186 -63 186 -171
v-1v-6c2 -114 2 -199 2 -238c0 -5 1 -7 1 -7c1 -1 2 -1 4 -1h12zM224 78c72 0 124 52 141 71c-1 25 -1 55 -1 90c-29 -13 -68 -22 -120 -22c-89 0 -109 -59 -109 -80c0 -37 32 -59 89 -59z" />
    <glyph glyph-name="agrave" unicode="&#xe0;" horiz-adv-x="558" 
d="M116 700c-17 15 -20 42 -4 60c15 17 41 19 59 4l99 -84c17 -15 20 -42 4 -60c-8 -9 -20 -14 -32 -14c-9 0 -19 3 -27 10zM466 84c23 0 42 -19 42 -42s-19 -42 -42 -42h-14c-24 0 -59 13 -77 45c-36 -26 -88 -51 -151 -51c-120 0 -174 71 -174 142c0 69 60 165 194 165
c98 0 116 38 119 46c-3 40 -20 77 -103 77c-38 0 -68 -9 -85 -26c-13 -13 -16 -27 -16 -29c0 -22 -19 -41 -42 -41s-42 19 -42 42c0 36 34 138 185 138c119 0 187 -62 187 -171v-1v-5c1 -115 2 -199 2 -238c0 -6 1 -8 1 -8s2 -1 3 -1h13zM224 78c71 0 123 52 140 71v89
c-29 -13 -68 -22 -120 -22c-89 0 -109 -59 -109 -80c0 -37 32 -58 89 -58z" />
    <glyph glyph-name="amacron" unicode="&#x101;" horiz-adv-x="558" 
d="M202 588c-17 0 -33 14 -33 32c0 17 16 32 33 32h126c18 0 32 -15 32 -32c0 -18 -14 -32 -32 -32h-126zM466 84c23 0 42 -19 42 -42s-19 -42 -42 -42h-14c-25 0 -59 13 -76 46c-37 -27 -88 -52 -152 -52c-120 0 -174 71 -174 142c0 69 60 165 194 165c98 0 116 38 119 46
c-3 40 -20 77 -102 77c-39 0 -69 -9 -86 -27c-13 -12 -15 -26 -16 -28c0 -22 -19 -41 -42 -41s-42 19 -42 42c0 36 34 138 186 138c118 0 186 -62 186 -171v-1v-5c1 -115 2 -199 2 -238c0 -6 1 -8 1 -8s2 -1 3 -1h13zM224 78c72 0 124 53 141 72c-1 24 -1 54 -1 88
c-29 -13 -68 -22 -120 -22c-89 0 -109 -59 -109 -80c0 -37 32 -58 89 -58z" />
    <glyph glyph-name="aring" unicode="&#xe5;" horiz-adv-x="558" 
d="M466 84c23 0 42 -19 42 -42s-19 -42 -42 -42h-14c-24 0 -59 13 -77 45c-36 -27 -88 -52 -151 -52c-120 0 -174 72 -174 143c0 68 60 165 194 165c98 0 116 38 119 47c-3 39 -20 76 -103 76c-38 0 -68 -9 -85 -27c-13 -13 -16 -26 -16 -28c0 -23 -19 -41 -42 -41
s-42 19 -42 42c0 27 18 89 88 120c-13 20 -21 45 -21 71c0 71 57 129 128 129s129 -58 129 -129c0 -30 -10 -57 -27 -79c48 -28 75 -77 75 -145v-1v-5c1 -115 2 -199 2 -238c0 -6 1 -8 1 -8s2 -1 3 -1h13zM270 606c-24 0 -44 -20 -44 -45c0 -24 20 -44 44 -44
c25 0 45 20 45 44c0 25 -20 45 -45 45zM224 78c71 0 123 52 140 70v90c-29 -13 -68 -22 -120 -22c-89 0 -109 -59 -109 -80c0 -37 32 -58 89 -58z" />
    <glyph glyph-name="atilde" unicode="&#xe3;" horiz-adv-x="558" 
d="M80 627c-25 15 -23 36 -11 57c18 33 61 80 123 80c72 0 80 -62 121 -62c46 0 56 80 106 54c21 -11 22 -32 16 -47c-14 -35 -49 -92 -122 -92s-83 63 -121 63c-40 0 -68 -80 -112 -53zM466 85c23 0 42 -19 42 -42c0 -24 -19 -43 -42 -43h-14c-24 0 -59 13 -77 46
c-36 -27 -88 -52 -151 -52c-120 0 -174 72 -174 143c0 68 60 164 193 164c93 0 114 35 119 45c-2 40 -18 78 -102 78c-39 0 -68 -9 -86 -26c-12 -13 -15 -26 -15 -28c-1 -23 -19 -41 -42 -41c-24 0 -43 19 -43 42c0 36 35 138 186 138c119 0 187 -63 187 -172v-6
c1 -114 1 -199 1 -238c0 -5 2 -7 2 -7s2 -1 3 -1h13zM224 78c72 0 124 52 140 71c-1 25 -1 55 -1 90c-29 -13 -68 -22 -120 -22c-89 0 -109 -59 -109 -80c0 -37 33 -59 90 -59z" />
    <glyph glyph-name="ae" unicode="&#xe6;" horiz-adv-x="862" 
d="M800 235c-8 -8 -19 -12 -30 -12h-322c8 -92 61 -150 139 -150c61 0 111 36 124 55s39 24 58 11c20 -13 25 -39 12 -58c-31 -46 -107 -93 -194 -93c-73 0 -133 32 -173 87c-34 -33 -100 -84 -190 -84c-120 0 -174 71 -174 142c0 69 60 165 193 165c98 0 117 38 120 46
c-3 40 -21 77 -103 77c-38 0 -68 -9 -85 -27c-13 -12 -16 -26 -16 -28c0 -23 -19 -41 -42 -41s-42 19 -42 42c0 36 34 138 185 138c78 0 134 -27 163 -76c41 50 99 81 164 81c126 0 224 -108 225 -245c0 -11 -4 -22 -12 -30zM454 307h269c-16 70 -69 118 -136 118
c-62 0 -114 -49 -133 -118zM224 75c69 0 119 48 138 69v91c-29 -13 -67 -22 -119 -22c-89 0 -109 -59 -109 -80c0 -37 33 -58 90 -58z" />
    <glyph glyph-name="b" unicode="b" horiz-adv-x="505" 
d="M256 526c119 0 203 -110 203 -262c0 -154 -84 -264 -203 -264c-43 0 -89 14 -126 46v-1c0 -27 -19 -45 -43 -45c-25 0 -41 18 -41 45v590c0 26 17 44 41 44s43 -18 43 -44v-149c33 26 75 40 126 40zM256 85c94 0 119 94 119 179c0 84 -25 177 -119 177
c-85 0 -126 -59 -126 -177c0 -69 16 -179 126 -179z" />
    <glyph glyph-name="c" unicode="c" horiz-adv-x="490" 
d="M258 -9c124 0 178 104 190 164c11 56 -67 75 -82 18c-4 -15 -16 -101 -108 -101c-72 0 -132 83 -132 182c0 91 60 174 132 174c65 0 100 -67 100 -67c35 -54 98 -6 74 34c-9 15 -58 114 -174 114c-115 0 -213 -114 -213 -255c0 -149 98 -263 213 -263z" />
    <glyph glyph-name="d" unicode="d" horiz-adv-x="508" 
d="M419 679c24 0 41 -18 41 -44v-590c0 -27 -16 -45 -41 -45c-24 0 -43 18 -43 45v1c-37 -32 -83 -46 -126 -46c-119 0 -203 110 -203 264c0 152 84 262 203 262c51 0 93 -14 126 -40v149c0 26 19 44 43 44zM250 85c110 0 126 110 126 179c0 118 -41 177 -126 177
c-94 0 -119 -93 -119 -177c0 -85 25 -179 119 -179z" />
    <glyph glyph-name="e" unicode="e" horiz-adv-x="505" 
d="M253 -10c83 0 160 50 192 93c33 43 -28 95 -66 50c-22 -26 -68 -58 -126 -58c-76 0 -134 58 -142 150h326c26 0 41 20 41 42c0 134 -99 243 -225 243s-226 -118 -226 -260c0 -151 92 -260 226 -260zM119 308c17 68 75 117 134 117c66 0 117 -49 134 -117h-268z" />
    <glyph glyph-name="eacute" unicode="&#xe9;" horiz-adv-x="545" 
d="M268 599c10 0 19 4 27 10l98 84c17 15 19 41 4 59c-15 17 -41 19 -59 4l-97 -83c-18 -15 -20 -42 -5 -59c9 -10 20 -15 32 -15zM273 -8c85 0 161 46 191 92c13 19 8 45 -11 57c-19 13 -45 8 -58 -11s-62 -54 -122 -54c-78 0 -130 57 -138 148h318c11 0 22 4 30 12
c7 8 12 19 12 30c-1 135 -98 241 -223 241c-124 0 -222 -113 -222 -258c0 -151 92 -257 223 -257zM141 307c19 69 70 117 131 117c67 0 119 -48 135 -117h-266z" />
    <glyph glyph-name="ecircumflex" unicode="&#xea;" horiz-adv-x="545" 
d="M399 606c11 0 23 5 31 14c15 17 14 43 -3 59l-127 113c-15 14 -39 14 -55 0l-127 -113c-17 -16 -18 -42 -3 -59s42 -19 59 -3l99 88l98 -88c8 -8 18 -11 28 -11zM273 -8c85 0 161 46 191 91c13 19 8 45 -11 58s-45 8 -58 -11s-62 -55 -122 -55c-78 0 -130 58 -138 148
h318c11 0 22 5 30 13c7 8 12 18 12 29c-1 136 -98 242 -223 242c-124 0 -222 -113 -222 -258c0 -151 92 -257 223 -257zM141 307c19 69 70 117 131 117c67 0 119 -48 135 -117h-266z" />
    <glyph glyph-name="edieresis" unicode="&#xeb;" horiz-adv-x="544" 
d="M196 604c23 0 41 19 41 42v16c0 23 -18 41 -41 41s-42 -18 -42 -41v-16c0 -23 19 -42 42 -42zM348 604c23 0 42 19 42 42v16c0 23 -19 41 -42 41s-41 -18 -41 -41v-16c0 -23 18 -42 41 -42zM272 -10c85 0 161 45 191 91c13 19 8 45 -11 58c-19 12 -45 7 -58 -12
s-61 -54 -122 -54c-77 0 -130 57 -138 148h318c12 0 22 4 30 12s12 19 12 30c0 135 -98 242 -222 242c-125 0 -222 -114 -222 -259c0 -151 91 -256 222 -256zM141 304c18 69 69 117 131 117c66 0 119 -48 134 -117h-265z" />
    <glyph glyph-name="egrave" unicode="&#xe8;" horiz-adv-x="544" 
d="M314 598c12 0 24 5 32 15c15 17 13 43 -5 58l-97 84c-18 15 -44 13 -59 -5c-15 -17 -13 -43 4 -58l98 -84c8 -7 17 -10 27 -10zM272 -9c85 0 161 46 191 91c13 19 8 45 -11 58s-45 8 -58 -11s-62 -55 -122 -55c-77 0 -130 58 -138 148h318c11 0 22 5 30 13s12 18 12 29
c0 136 -98 242 -222 242c-125 0 -222 -113 -222 -258c0 -151 91 -257 222 -257zM141 306c18 69 69 117 131 117c66 0 119 -48 134 -117h-265z" />
    <glyph glyph-name="emacron" unicode="&#x113;" horiz-adv-x="545" 
d="M209 588h126c18 0 32 14 32 32c0 17 -14 32 -32 32h-126c-17 0 -33 -15 -33 -32c0 -18 16 -32 33 -32zM272 -7c86 0 161 46 192 91c13 19 8 45 -12 58c-19 13 -45 8 -57 -11c-13 -19 -62 -55 -123 -55c-77 0 -129 58 -137 148h318c11 0 22 5 29 13c8 8 13 18 13 29
c-1 136 -99 242 -223 242s-222 -113 -222 -258c0 -151 92 -257 222 -257zM141 308c19 69 70 117 131 117c66 0 119 -48 135 -117h-266z" />
    <glyph glyph-name="f" unicode="f" horiz-adv-x="319" 
d="M239 510c26 0 45 -17 45 -41s-19 -42 -45 -42h-31v-382c0 -25 -17 -45 -41 -45s-42 20 -42 45v382h-31c-25 0 -44 18 -44 42s19 41 44 41h31v67c0 67 39 101 89 101c45 0 61 -21 61 -46c0 -21 -16 -37 -41 -37c-26 0 -26 -9 -26 -18v-67h31z" />
    <glyph glyph-name="g" unicode="g" horiz-adv-x="525" 
d="M434 500c24 0 41 -20 41 -46v-410c0 -58 -17 -116 -50 -158c-40 -51 -100 -75 -158 -75c-100 0 -155 75 -159 83c-11 21 -11 46 9 59c16 10 40 4 58 -17c0 0 33 -42 92 -42c79 0 121 77 125 141c-35 -32 -78 -49 -125 -49c-117 0 -217 117 -217 258
c0 150 100 267 217 267c47 0 90 -18 125 -50c3 23 20 39 42 39zM267 69c94 0 125 84 125 175c0 100 -31 184 -125 184c-75 0 -134 -84 -134 -184c0 -91 59 -175 134 -175z" />
    <glyph glyph-name="h" unicode="h" horiz-adv-x="473" 
d="M385 421c26 -42 38 -100 38 -169v-210c0 -24 -18 -42 -40 -42c-23 0 -42 18 -42 42v210c0 54 -9 97 -27 127c-17 29 -41 42 -77 42c-46 0 -64 -18 -74 -31c-21 -26 -31 -71 -31 -135v-213c0 -24 -18 -42 -40 -42c-24 0 -42 18 -42 42v570c0 23 18 42 42 42
c22 0 40 -19 40 -42v-139c28 20 63 30 105 30c64 0 115 -28 148 -82z" />
    <glyph glyph-name="i" unicode="i" horiz-adv-x="188" 
d="M94 595c26 0 44 18 44 44v17c0 28 -18 44 -44 44c-24 0 -44 -16 -44 -44v-17c0 -26 20 -44 44 -44zM94 0c25 0 44 20 44 46v408c0 26 -19 46 -44 46s-44 -20 -44 -46v-408c0 -26 18 -46 44 -46z" />
    <glyph glyph-name="iacute" unicode="&#xed;" horiz-adv-x="280" 
d="M91 597c10 0 20 3 27 10l97 83c18 15 20 41 5 58c-15 18 -41 20 -59 5l-97 -83c-17 -15 -19 -41 -4 -59c8 -9 20 -14 31 -14zM99 0c22 0 41 18 41 41v417c0 23 -19 42 -41 42c-23 0 -42 -19 -42 -42v-417c0 -23 19 -41 42 -41z" />
    <glyph glyph-name="icircumflex" unicode="&#xee;" horiz-adv-x="435" 
d="M343 606c12 0 23 4 31 14c15 17 14 43 -3 58l-126 113c-16 14 -39 14 -55 0l-126 -113c-17 -15 -18 -41 -3 -58c15 -18 41 -19 58 -4l99 88l98 -88c8 -7 17 -10 27 -10zM218 0c22 0 41 18 41 41v417c0 23 -19 42 -41 42c-23 0 -42 -19 -42 -42v-417c0 -23 19 -41 42 -41z
" />
    <glyph glyph-name="idieresis" unicode="&#xef;" horiz-adv-x="335" 
d="M92 606c23 0 41 19 41 42v16c0 22 -18 41 -41 41s-42 -19 -42 -41v-16c0 -23 19 -42 42 -42zM244 606c22 0 41 19 41 42v16c0 22 -19 41 -41 41c-23 0 -42 -19 -42 -41v-16c0 -23 19 -42 42 -42zM168 0c23 0 41 18 41 41v418c0 22 -18 41 -41 41s-42 -19 -42 -41v-418
c0 -23 19 -41 42 -41z" />
    <glyph glyph-name="igrave" unicode="&#xec;" horiz-adv-x="280" 
d="M189 597c11 0 23 5 31 14c15 18 13 44 -4 59l-97 83c-18 15 -44 13 -59 -5c-15 -17 -13 -43 5 -58l97 -83c7 -7 17 -10 27 -10zM189 0c23 0 41 18 41 41v417c0 23 -18 42 -41 42s-42 -19 -42 -42v-417c0 -23 19 -41 42 -41z" />
    <glyph glyph-name="imacron" unicode="&#x12b;" horiz-adv-x="291" 
d="M83 588h126c18 0 32 14 32 32c0 17 -14 32 -32 32h-126c-17 0 -33 -15 -33 -32c0 -18 16 -32 33 -32zM145 0c23 0 42 19 42 42v417c0 23 -19 41 -42 41s-41 -18 -41 -41v-417c0 -23 18 -42 41 -42z" />
    <glyph glyph-name="j" unicode="j" horiz-adv-x="235" 
d="M141 595c26 0 44 18 44 44v17c0 28 -18 44 -44 44c-24 0 -44 -16 -44 -44v-17c0 -26 20 -44 44 -44zM94 -144c35 0 91 8 91 87v511c0 26 -19 46 -44 46s-44 -20 -44 -46v-511h-3c-24 0 -44 -18 -44 -42c0 -25 20 -45 44 -45z" />
    <glyph glyph-name="k" unicode="k" horiz-adv-x="493" 
d="M435 64c13 -18 9 -43 -9 -57c-13 -10 -42 -11 -57 10l-176 243c-28 -24 -50 -44 -61 -55v-165c0 -22 -19 -40 -40 -40c-24 0 -42 18 -42 40v571c0 23 18 41 42 41c21 0 40 -18 40 -41v-296l61 53c64 54 128 107 129 107c18 15 43 13 58 -6c14 -17 12 -42 -6 -57
c-40 -33 -81 -67 -118 -99z" />
    <glyph glyph-name="l" unicode="l" horiz-adv-x="182" 
d="M90 0c23 0 42 19 42 42v616c0 23 -19 42 -42 42s-40 -19 -40 -42v-616c0 -23 17 -42 40 -42z" />
    <glyph glyph-name="m" unicode="m" horiz-adv-x="718" 
d="M497 511c97 0 171 -65 171 -153v-311c0 -27 -17 -47 -40 -47c-25 0 -42 20 -42 47v311c0 48 -41 72 -89 72c-49 0 -98 -41 -98 -81v-302c0 -27 -17 -47 -40 -47s-41 20 -41 47v302v5v4c0 48 -48 72 -97 72c-40 0 -89 -41 -89 -81v-302c0 -27 -16 -47 -41 -47
c-23 0 -41 20 -41 47v406c0 26 18 47 41 47c16 0 28 -8 34 -20c28 19 62 31 96 31c61 0 111 -22 143 -58c33 35 80 58 133 58z" />
    <glyph glyph-name="n" unicode="n" horiz-adv-x="477" 
d="M426 350c1 -2 1 -4 1 -6v-298c0 -26 -17 -46 -40 -46c-24 0 -41 20 -41 46v292c0 42 -50 91 -108 91c-65 0 -107 -58 -107 -91v-292c0 -26 -17 -46 -40 -46c-24 0 -41 20 -41 46v408c0 26 18 46 41 46c16 0 29 -10 36 -24c29 21 66 35 111 35c94 0 181 -75 188 -161z" />
    <glyph glyph-name="nacute" unicode="&#x144;" horiz-adv-x="477" 
d="M246 599c-12 0 -23 5 -32 15c-15 18 -13 45 5 60l99 85c18 15 44 13 60 -5c15 -18 13 -45 -5 -60l-99 -85c-8 -6 -18 -10 -28 -10zM238 517c99 0 189 -82 189 -173v-298c0 -26 -17 -46 -40 -46c-24 0 -41 20 -41 46v298c0 42 -50 91 -108 91c-65 0 -107 -58 -107 -91
v-298c0 -26 -17 -46 -40 -46c-24 0 -41 20 -41 46v408c0 26 18 46 41 46c14 0 26 -8 33 -20c30 22 68 37 114 37z" />
    <glyph glyph-name="ntilde" unicode="&#xf1;" horiz-adv-x="486" 
d="M417 756c21 -11 22 -32 16 -47c-14 -35 -49 -92 -122 -92s-83 63 -121 63c-40 0 -68 -80 -112 -53c-25 15 -23 36 -11 57c19 33 61 80 123 80c72 0 80 -62 121 -62c46 0 56 80 106 54zM238 517c99 0 189 -82 189 -173v-298c0 -26 -17 -46 -40 -46c-24 0 -41 20 -41 46
v298c0 42 -50 91 -108 91c-65 0 -107 -58 -107 -91v-298c0 -26 -17 -46 -40 -46c-24 0 -41 20 -41 46v408c0 26 18 46 41 46c14 0 26 -8 33 -20c30 22 68 37 114 37z" />
    <glyph glyph-name="o" unicode="o" horiz-adv-x="499" 
d="M254 -10c118 0 220 118 220 262c0 143 -102 262 -220 262c-127 0 -229 -119 -229 -262c0 -144 102 -262 229 -262zM254 429c76 0 135 -76 135 -177c0 -93 -59 -178 -135 -178c-85 0 -144 85 -144 178c0 101 59 177 144 177z" />
    <glyph glyph-name="oacute" unicode="&#xf3;" horiz-adv-x="556" 
d="M226 603c9 0 19 3 27 10l99 85c18 15 20 42 5 60s-42 20 -60 4l-99 -84c-18 -16 -20 -42 -5 -60c9 -10 21 -15 33 -15zM278 -13c126 0 228 118 228 263s-102 263 -228 263s-228 -118 -228 -263s102 -263 228 -263zM278 428c79 0 144 -80 144 -178s-65 -178 -144 -178
s-143 80 -143 178s64 178 143 178z" />
    <glyph glyph-name="ocircumflex" unicode="&#xf4;" horiz-adv-x="556" 
d="M150 612c10 0 20 3 28 11l100 89l100 -89c18 -16 45 -15 60 3c16 17 14 44 -3 60l-128 115c-17 14 -41 14 -57 0l-128 -115c-18 -16 -19 -43 -4 -60c9 -10 20 -14 32 -14zM278 -11c126 0 228 118 228 263c0 144 -102 262 -228 262c-125 0 -228 -118 -228 -262
c0 -145 103 -263 228 -263zM278 430c79 0 144 -80 144 -178c0 -99 -65 -178 -144 -178s-143 79 -143 178c0 98 64 178 143 178z" />
    <glyph glyph-name="odieresis" unicode="&#xf6;" horiz-adv-x="556" 
d="M199 609c23 0 42 19 42 43v16c0 23 -19 42 -42 42c-24 0 -43 -19 -43 -42v-16c0 -24 19 -43 43 -43zM354 609c23 0 42 19 42 43v16c0 23 -19 42 -42 42c-24 0 -43 -19 -43 -42v-16c0 -24 19 -43 43 -43zM278 -14c126 0 228 118 228 263s-102 262 -228 262
s-228 -117 -228 -262s102 -263 228 -263zM278 427c79 0 143 -80 143 -178c0 -99 -64 -178 -143 -178s-143 79 -143 178c0 98 64 178 143 178z" />
    <glyph glyph-name="ograve" unicode="&#xf2;" horiz-adv-x="556" 
d="M273 603c12 0 24 5 32 15c15 18 13 44 -4 60l-100 84c-17 16 -44 13 -59 -4c-15 -18 -13 -45 4 -60l99 -85c8 -7 18 -10 28 -10zM278 -13c126 0 228 118 228 263s-102 263 -228 263s-228 -118 -228 -263s102 -263 228 -263zM278 428c79 0 143 -80 143 -178
s-64 -178 -143 -178s-143 80 -143 178s64 178 143 178z" />
    <glyph glyph-name="omacron" unicode="&#x14d;" horiz-adv-x="556" 
d="M215 588h126c18 0 32 14 32 32c0 17 -14 32 -32 32h-126c-17 0 -33 -15 -33 -32c0 -18 16 -32 33 -32zM278 -13c126 0 228 118 228 263s-102 263 -228 263s-228 -118 -228 -263s102 -263 228 -263zM278 428c79 0 144 -80 144 -178s-65 -178 -144 -178s-143 80 -143 178
s64 178 143 178z" />
    <glyph glyph-name="oslash" unicode="&#xf8;" 
d="M540 456c15 -18 13 -45 -5 -60l-32 -27c16 -36 25 -76 25 -119c0 -145 -102 -263 -228 -263c-61 0 -116 27 -157 72l-23 -20c-8 -7 -18 -10 -27 -10c-12 0 -24 5 -33 15c-15 18 -13 44 5 60l32 27c-16 36 -25 76 -25 119c0 145 102 263 228 263c61 0 116 -28 157 -73
l23 20c18 16 45 14 60 -4zM157 250c0 -21 3 -41 8 -60l228 195c-25 27 -58 43 -93 43c-79 0 -143 -80 -143 -178zM444 250c0 21 -3 41 -9 60l-227 -196c24 -26 57 -42 92 -42c79 0 144 80 144 178z" />
    <glyph glyph-name="otilde" unicode="&#xf5;" horiz-adv-x="556" 
d="M342 617c73 0 108 57 122 92c6 15 5 36 -16 47c-50 26 -60 -54 -106 -54c-41 0 -49 62 -121 62c-62 0 -104 -47 -123 -80c-12 -21 -14 -42 11 -57c44 -27 72 53 112 53c38 0 48 -63 121 -63zM278 -13c126 0 228 118 228 263s-102 263 -228 263s-228 -118 -228 -263
s102 -263 228 -263zM278 428c79 0 143 -80 143 -178s-64 -178 -143 -178s-143 80 -143 178s64 178 143 178z" />
    <glyph glyph-name="oe" unicode="&#x153;" horiz-adv-x="922" 
d="M859 235c-8 -8 -19 -12 -30 -12h-323c8 -93 61 -151 140 -151c61 0 111 36 124 55c13 20 39 25 59 12c19 -13 24 -39 11 -59c-31 -46 -107 -92 -194 -92c-81 0 -148 40 -187 106c-42 -63 -108 -104 -181 -104c-126 0 -228 118 -228 263c0 144 102 262 228 262
c76 0 144 -44 185 -110c41 65 107 106 183 106c126 0 225 -108 226 -246c0 -11 -5 -22 -13 -30zM278 75c74 0 135 69 142 159v14c0 6 0 13 1 19c-6 92 -68 164 -143 164c-79 0 -144 -80 -144 -178c0 -99 65 -178 144 -178zM513 307h269c-15 70 -69 119 -136 119
c-63 0 -115 -49 -133 -119z" />
    <glyph glyph-name="p" unicode="p" horiz-adv-x="514" 
d="M267 498c130 0 212 -131 212 -254c0 -140 -89 -245 -204 -245c-52 0 -96 14 -131 41v-119c0 -25 -17 -45 -41 -45c-23 0 -41 20 -41 45v516c0 25 18 44 41 44c19 0 34 -12 39 -29c38 32 84 46 125 46zM275 81c66 0 122 74 122 163c0 82 -48 172 -130 172
c-73 0 -123 -66 -123 -172c0 -107 50 -163 131 -163z" />
    <glyph glyph-name="q" unicode="q" horiz-adv-x="538" 
d="M447 474c24 0 41 -19 41 -44v-508c0 -25 -17 -44 -41 -44s-41 19 -41 44v118c-35 -27 -78 -40 -122 -40c-115 0 -214 96 -214 243c0 138 91 247 214 247c43 0 88 -14 124 -45c6 17 20 29 39 29zM284 82c65 0 122 41 122 163c0 114 -65 163 -122 163
c-66 0 -132 -68 -132 -165c0 -107 66 -161 132 -161z" />
    <glyph glyph-name="r" unicode="r" horiz-adv-x="314" 
d="M223 492c39 0 56 -17 56 -43c0 -25 -17 -42 -43 -42c-67 0 -101 -69 -101 -93v-268c0 -26 -18 -46 -42 -46c-25 0 -43 20 -43 46v408c0 26 18 46 43 46c22 0 39 -16 42 -39c25 19 54 31 88 31z" />
    <glyph glyph-name="s" unicode="s" horiz-adv-x="466" 
d="M238 -5c121 0 178 88 178 154c0 113 -106 137 -186 153c-72 16 -97 26 -97 64c0 43 49 62 87 62c43 0 71 -29 87 -46c41 -43 99 10 63 55c-22 28 -76 75 -156 75c-84 0 -162 -65 -162 -154c0 -91 89 -121 162 -137c88 -16 121 -33 121 -72c0 -25 -25 -74 -97 -74
c-70 0 -95 45 -108 62c-40 54 -106 6 -69 -48c21 -30 69 -94 177 -94z" />
    <glyph glyph-name="t" unicode="t" horiz-adv-x="326" 
d="M204 418v-335h11c26 0 46 -18 46 -41c0 -24 -20 -42 -46 -42h-18c-42 0 -75 21 -75 84v334h-31c-22 0 -41 18 -41 41s19 41 41 41h31v53c0 23 19 42 41 42c23 0 41 -19 41 -42v-53h31c23 0 41 -18 41 -41s-18 -41 -41 -41h-31z" />
    <glyph glyph-name="u" unicode="u" horiz-adv-x="471" 
d="M380 500c24 0 41 -19 41 -45v-414c0 -25 -25 -41 -42 -41c-16 0 -28 7 -35 19c-33 -23 -74 -35 -113 -35c-114 0 -181 91 -181 173v298c0 26 18 45 42 45s40 -19 40 -45v-298c0 -33 34 -91 99 -91c42 0 108 33 108 91v298c0 26 18 45 41 45z" />
    <glyph glyph-name="uacute" unicode="&#xfa;" horiz-adv-x="483" 
d="M251 599c-12 0 -23 5 -32 15c-15 18 -13 45 5 60l99 85c18 15 44 13 60 -5c15 -18 13 -45 -5 -60l-99 -85c-8 -6 -18 -10 -28 -10zM386 499c24 0 43 -19 43 -42v-415c0 -23 -19 -42 -43 -42c-15 0 -28 8 -36 20c-34 -24 -74 -37 -114 -37c-116 0 -186 94 -186 185v289
c0 23 19 42 43 42c23 0 42 -19 42 -42v-289c0 -42 31 -100 101 -100c44 0 108 35 108 100v289c0 23 19 42 42 42z" />
    <glyph glyph-name="ucircumflex" unicode="&#xfb;" horiz-adv-x="478" 
d="M139 617c-18 -15 -45 -14 -60 4c-16 17 -14 44 3 59l128 116c17 14 41 14 57 0l128 -116c18 -15 19 -42 4 -59c-9 -10 -20 -15 -32 -15c-10 0 -20 4 -28 11l-100 90zM386 499c23 0 42 -19 42 -42v-415c0 -23 -19 -42 -42 -42c-16 0 -29 8 -37 20
c-34 -24 -74 -37 -114 -37c-116 0 -185 94 -185 185v289c0 24 19 43 42 43s42 -19 42 -43v-289c0 -41 32 -100 101 -100c44 0 108 36 108 100v289c0 23 19 42 43 42z" />
    <glyph glyph-name="udieresis" unicode="&#xfc;" horiz-adv-x="478" 
d="M162 607c-24 0 -43 19 -43 42v17c0 23 19 42 43 42c23 0 42 -19 42 -42v-17c0 -23 -19 -42 -42 -42zM317 607c-24 0 -43 19 -43 42v17c0 23 19 42 43 42c23 0 42 -19 42 -42v-17c0 -23 -19 -42 -42 -42zM386 499c23 0 42 -19 42 -42v-414c0 -24 -19 -43 -42 -43
c-15 0 -29 8 -36 21c-34 -24 -75 -38 -115 -38c-116 0 -185 94 -185 185v289c0 24 19 43 42 43c24 0 43 -19 43 -43v-289c0 -41 31 -100 100 -100c45 0 109 36 109 100v289c0 23 19 42 42 42z" />
    <glyph glyph-name="ugrave" unicode="&#xf9;" horiz-adv-x="478" 
d="M126 694c-17 16 -19 42 -4 60s42 20 59 5l100 -85c17 -15 19 -42 4 -60c-8 -10 -20 -15 -32 -15c-10 0 -20 4 -28 11zM386 499c23 0 42 -19 42 -42v-414c0 -24 -19 -43 -42 -43c-15 0 -29 8 -36 21c-34 -24 -75 -38 -115 -38c-116 0 -185 94 -185 185v289
c0 24 19 43 42 43c24 0 43 -19 43 -43v-289c0 -41 31 -100 100 -100c45 0 109 36 109 100v289c0 23 19 42 42 42z" />
    <glyph glyph-name="umacron" unicode="&#x16b;" horiz-adv-x="478" 
d="M176 588c-17 0 -33 14 -33 32c0 17 16 32 33 32h126c18 0 32 -15 32 -32c0 -18 -14 -32 -32 -32h-126zM386 499c23 0 42 -19 42 -42v-414c0 -24 -19 -43 -42 -43c-15 0 -29 8 -36 21c-34 -24 -75 -38 -115 -38c-116 0 -185 94 -185 185v289c0 24 19 43 42 43
c24 0 43 -19 43 -43v-289c0 -41 31 -100 100 -100c45 0 109 36 109 100v289c0 23 19 42 42 42z" />
    <glyph glyph-name="v" unicode="v" horiz-adv-x="490" 
d="M250 154l-130 316c-11 27 -36 38 -60 26c-22 -11 -31 -36 -22 -58l175 -413c6 -15 21 -25 37 -25c15 0 30 10 36 25l175 416c9 22 2 47 -20 56c-20 8 -45 -2 -57 -29z" />
    <glyph glyph-name="w" unicode="w" horiz-adv-x="691" 
d="M629 500c25 -8 31 -34 25 -51l-135 -424c-10 -35 -64 -36 -76 0l-96 300l-90 -300c-10 -36 -64 -37 -76 0l-144 424c-7 20 7 45 25 51c26 9 53 -6 59 -25l93 -298l91 298c0 1 0 1 1 2c0 1 1 3 2 5c8 15 26 23 41 21c16 1 28 -9 35 -28l101 -298l93 298c5 16 26 33 51 25z
" />
    <glyph glyph-name="x" unicode="x" horiz-adv-x="507" 
d="M307 250l140 -181c15 -19 12 -46 -7 -60c-8 -6 -17 -9 -26 -9c-12 0 -25 6 -33 16l-128 165l-127 -165c-9 -10 -21 -16 -34 -16c-8 0 -17 3 -25 9c-19 14 -23 41 -8 60l141 181l-141 182c-15 19 -11 46 8 60c18 14 45 11 59 -8l127 -165l128 165c14 19 40 22 59 8
s22 -41 7 -60z" />
    <glyph glyph-name="y" unicode="y" horiz-adv-x="446" 
d="M379 500c22 -8 32 -32 24 -54l-201 -529c-12 -31 -31 -54 -84 -54c-23 0 -41 18 -41 40c0 25 20 44 51 44l35 93c-1 1 -1 1 -1 2l-121 407c-7 22 5 45 28 51c22 7 43 -5 51 -27l91 -304l114 307c9 21 31 31 54 24z" />
    <glyph glyph-name="ydieresis" unicode="&#xff;" horiz-adv-x="446" 
d="M167 586c-18 0 -32 14 -32 32v13c0 18 14 32 32 32s33 -14 33 -32v-13c0 -18 -15 -32 -33 -32zM286 586c-18 0 -32 14 -32 32v13c0 18 14 32 32 32s33 -14 33 -32v-13c0 -18 -15 -32 -33 -32zM379 500c22 -8 32 -32 24 -54l-201 -529c-12 -31 -31 -54 -84 -54
c-23 0 -41 18 -41 40c0 25 20 44 51 44l35 93c-1 1 -1 1 -1 2l-121 407c-7 22 5 45 28 51c22 7 43 -5 51 -27l91 -304l114 307c9 21 31 31 54 24z" />
    <glyph glyph-name="z" unicode="z" horiz-adv-x="469" 
d="M382 0c23 0 42 19 42 42c0 24 -19 43 -42 43h-213l240 348c9 13 10 30 3 44s-21 23 -37 23h-272c-23 0 -42 -18 -43 -42c0 -23 19 -42 42 -44h193l-242 -347c-9 -13 -10 -30 -3 -44s22 -23 38 -23h294z" />
    <glyph glyph-name="zero" unicode="0" horiz-adv-x="658" 
d="M329 -5c154 0 279 159 279 355s-125 356 -279 356s-279 -160 -279 -356s125 -355 279 -355zM329 617c105 0 190 -120 190 -267c0 -146 -85 -266 -190 -266s-190 120 -190 266c0 147 85 267 190 267z" />
    <glyph glyph-name="one" unicode="1" horiz-adv-x="406" 
d="M212 0c24 0 44 19 44 43v614c0 24 -20 43 -44 43h-19c-13 0 -25 -6 -34 -15l-99 -117c-15 -18 -13 -46 5 -61c18 -16 46 -14 61 5l43 50v-519c0 -24 19 -43 43 -43z" />
    <glyph glyph-name="two" unicode="2" horiz-adv-x="589" 
d="M495 0c24 0 44 20 44 44s-20 43 -44 43h-347c4 68 25 129 146 188c127 61 200 116 200 220c0 118 -99 207 -230 207c-154 0 -207 -130 -214 -199c-2 -24 16 -45 40 -47c24 -3 45 15 47 39c0 0 4 31 22 61c22 39 57 58 105 58c94 0 142 -60 142 -119
c0 -46 -23 -80 -150 -141c-196 -95 -196 -220 -196 -310c0 -24 19 -44 44 -44h391z" />
    <glyph glyph-name="three" unicode="3" horiz-adv-x="603" 
d="M305 0c144 0 248 98 248 233c0 122 -83 198 -165 225c58 57 92 118 92 142v56c0 24 -20 44 -44 44h-322c-25 0 -44 -20 -44 -44s19 -44 44 -44h278v-5c-12 -26 -72 -113 -165 -160c-14 -5 -23 -10 -25 -11c-21 -12 -29 -37 -19 -58c11 -21 35 -30 57 -21c7 3 15 6 22 10
c15 6 39 13 64 13c48 0 139 -43 139 -147c0 -100 -80 -145 -160 -145c-120 0 -158 92 -169 131c-7 23 -31 37 -54 31c-23 -7 -37 -31 -31 -54c13 -46 69 -196 254 -196z" />
    <glyph glyph-name="four" unicode="4" horiz-adv-x="642" 
d="M441 0c25 0 44 20 44 44v161h63c24 0 44 19 44 44c0 24 -20 43 -44 43h-63v364c0 19 -11 35 -29 41c-17 7 -36 2 -48 -12l-347 -408c-11 -13 -14 -31 -7 -47c8 -15 23 -25 40 -25h303v-161c0 -24 20 -44 44 -44zM189 292l208 245v-245h-208z" />
    <glyph glyph-name="five" unicode="5" horiz-adv-x="633" 
d="M308 0c140 0 245 110 245 255c0 150 -107 258 -254 258c-46 0 -83 -12 -112 -28l19 127h247c24 0 43 20 43 44s-19 44 -43 44h-285c-22 0 -40 -16 -44 -38l-39 -267c-2 -12 2 -25 10 -35c9 -9 21 -15 34 -15h13c14 0 29 8 37 20c0 1 40 60 120 60c99 0 166 -68 166 -170
c0 -97 -66 -167 -157 -167c-93 0 -154 69 -172 133c-7 23 -31 37 -54 30c-23 -6 -37 -30 -31 -54c27 -95 118 -197 257 -197z" />
    <glyph glyph-name="six" unicode="6" horiz-adv-x="599" 
d="M305 491c155 0 244 -109 244 -245c0 -135 -92 -246 -244 -246c-125 0 -211 72 -237 173c-24 82 -24 275 -3 338c16 56 48 104 91 138c43 35 94 54 146 53c14 0 155 -2 203 -123c9 -22 -2 -48 -24 -57c-23 -8 -45 3 -57 25c-37 69 -118 68 -122 68h-1
c-32 1 -63 -11 -91 -33c-48 -40 -66 -90 -70 -149c41 36 97 58 165 58zM305 86c99 0 159 72 159 160s-59 159 -159 159s-160 -73 -160 -161s61 -158 160 -158z" />
    <glyph glyph-name="seven" unicode="7" horiz-adv-x="596" 
d="M250 0c24 0 43 19 44 43c2 370 235 579 237 581c14 11 19 31 12 48c-6 17 -22 28 -41 28h-409c-24 0 -43 -19 -43 -44c0 -24 19 -43 43 -43h310c-79 -99 -195 -292 -197 -569c0 -24 20 -44 44 -44z" />
    <glyph glyph-name="eight" unicode="8" horiz-adv-x="569" 
d="M424 370c58 -37 95 -97 95 -164c0 -114 -105 -206 -235 -206c-129 0 -234 92 -234 206c0 67 37 127 94 164c-44 35 -73 86 -73 142c0 104 96 188 213 188c118 0 214 -84 214 -188c0 -56 -29 -107 -74 -142zM158 512c0 -56 57 -101 126 -101c70 0 127 45 127 101
s-57 101 -127 101c-69 0 -126 -45 -126 -101zM284 87c82 0 148 53 148 119c0 65 -66 118 -148 118c-81 0 -147 -53 -147 -118c0 -66 66 -119 147 -119z" />
    <glyph glyph-name="nine" unicode="9" horiz-adv-x="563" 
d="M507 470c10 -90 5 -219 -5 -280c-18 -105 -103 -190 -213 -190c-56 0 -148 9 -204 123c-8 22 3 47 25 56s42 -2 56 -25c32 -55 76 -67 123 -67c49 0 116 46 132 128c4 20 8 46 9 80c-42 -37 -97 -60 -157 -60c-127 0 -223 100 -223 232c0 133 96 233 223 233
c128 0 232 -102 234 -230zM273 330c82 0 148 62 148 137c0 76 -66 137 -148 137c-78 0 -136 -59 -136 -137s58 -137 136 -137z" />
    <glyph glyph-name="asterisk" unicode="*" horiz-adv-x="399" 
d="M329 505c20 -11 26 -36 15 -55c-7 -13 -21 -20 -35 -20c-7 0 -13 2 -20 5l-49 28v-56c0 -23 -18 -40 -40 -40c-23 0 -41 17 -41 40v56l-49 -28c-6 -3 -13 -5 -20 -5c-14 0 -27 7 -35 20c-11 19 -4 44 15 55l49 28l-49 29c-19 11 -26 36 -15 55s36 26 55 14l49 -28v57
c0 22 18 40 41 40c22 0 40 -18 40 -40v-57l49 28c19 12 44 5 55 -14s5 -44 -15 -55l-49 -29z" />
    <glyph glyph-name="backslash" unicode="\" 
d="M433 -70c4 0 9 1 14 3c21 8 31 31 23 51l-265 691c-8 21 -31 31 -52 23s-31 -31 -23 -52l265 -690c6 -16 21 -26 38 -26z" />
    <glyph glyph-name="periodcentered" unicode="&#xb7;" 
d="M257 315c0 -25 17 -44 42 -44c26 0 42 19 42 44c0 26 -17 44 -42 44c-24 0 -42 -18 -42 -44z" />
    <glyph glyph-name="bullet" unicode="&#x2022;" 
d="M200 285c0 -59 41 -104 99 -104c62 0 100 45 100 104c0 62 -41 105 -99 105s-100 -43 -100 -105z" />
    <glyph glyph-name="colon" unicode=":" horiz-adv-x="202" 
d="M53 292c0 -29 19 -50 47 -50c30 0 49 21 49 50s-19 50 -48 50c-27 0 -48 -21 -48 -50zM53 50c0 -29 19 -50 47 -50c30 0 49 21 49 50s-19 50 -48 50c-27 0 -48 -21 -48 -50z" />
    <glyph glyph-name="comma" unicode="," horiz-adv-x="220" 
d="M92 -132c11 0 23 5 31 14c39 42 47 92 47 126c0 39 -10 77 -26 102c-13 19 -39 25 -59 12c-19 -13 -25 -40 -12 -59c10 -15 25 -83 -12 -123c-16 -17 -15 -44 2 -60c8 -8 19 -12 29 -12z" />
    <glyph glyph-name="ellipsis" unicode="&#x2026;" 
d="M101 100c29 0 48 -21 48 -50s-19 -50 -49 -50c-28 0 -47 21 -47 50s21 50 48 50z" />
    <glyph glyph-name="exclam" unicode="!" horiz-adv-x="189" 
d="M94 165c25 0 45 20 45 44v447c0 24 -20 44 -45 44c-24 0 -44 -20 -44 -44v-447c0 -24 20 -44 44 -44zM138 46c0 27 -18 46 -43 46c-27 0 -44 -19 -44 -46s17 -46 43 -46c25 0 44 19 44 46z" />
    <glyph glyph-name="exclamdown" unicode="&#xa1;" 
d="M343 395c0 27 -19 46 -44 46c-26 0 -43 -19 -43 -46s17 -46 44 -46c25 0 43 19 43 46zM299 276c-24 0 -44 -20 -44 -44v-447c0 -24 20 -44 44 -44c25 0 45 20 45 44v447c0 24 -20 44 -45 44z" />
    <glyph glyph-name="numbersign" unicode="#" 
d="M651 502c24 0 44 -20 44 -44c0 -25 -20 -44 -44 -44h-171l-44 -116h170c24 0 44 -20 44 -44s-20 -44 -44 -44h-204l-69 -182c-7 -18 -24 -28 -41 -28c-6 0 -11 0 -16 2c-23 9 -34 35 -26 57l58 151h-152l-69 -182c-7 -18 -24 -28 -42 -28c-5 0 -10 0 -15 2
c-23 9 -34 35 -26 57l58 151h-112c-24 0 -44 20 -44 44s20 44 44 44h145l45 116h-144c-25 0 -44 19 -44 44c0 24 19 44 44 44h177l65 169c9 23 34 34 57 26c23 -9 34 -34 25 -57l-53 -138h152l65 169c9 23 34 34 57 26c23 -9 34 -34 25 -57l-53 -138h138zM341 298l45 116
h-152l-44 -116h151z" />
    <glyph glyph-name="period" unicode="." horiz-adv-x="184" 
d="M53 50c0 -29 19 -50 47 -50c30 0 49 21 49 50s-19 50 -48 50c-27 0 -48 -21 -48 -50z" />
    <glyph glyph-name="question" unicode="?" 
d="M291 134c23 0 42 19 42 42v117c45 8 87 29 119 62c39 40 61 93 61 147c0 101 -76 208 -219 208c-64 0 -124 -27 -163 -73c-34 -40 -49 -91 -41 -136c4 -23 25 -38 48 -34s38 25 34 48c-4 21 5 47 23 68c13 16 45 43 99 43c68 0 136 -42 136 -124
c0 -63 -52 -129 -139 -129c-23 0 -42 -19 -42 -42v-155c0 -23 19 -42 42 -42zM333 41c0 25 -17 43 -41 43c-25 0 -41 -18 -41 -43c0 -26 17 -43 41 -43s41 17 41 43z" />
    <glyph glyph-name="questiondown" unicode="&#xbf;" 
d="M343 395c0 27 -19 46 -44 46c-26 0 -43 -19 -43 -46s17 -46 44 -46c25 0 43 19 43 46zM300 304c-23 0 -42 -19 -42 -42v-117c-45 -8 -87 -29 -119 -62c-39 -40 -61 -93 -61 -147c0 -101 76 -208 219 -208c64 0 124 27 163 73c34 40 49 91 41 136c-4 23 -25 38 -48 34
s-38 -25 -34 -48c4 -21 -5 -47 -23 -68c-13 -16 -45 -43 -99 -43c-68 0 -136 42 -136 124c0 63 52 129 139 129c23 0 42 19 42 42v155c0 23 -19 42 -42 42z" />
    <glyph glyph-name="quotedbl" unicode="&#x22;" horiz-adv-x="304" 
d="M92 441c24 0 43 19 43 43v175c0 23 -19 42 -43 42c-23 0 -42 -19 -42 -42v-175c0 -24 19 -43 42 -43zM211 441c24 0 43 19 43 43v175c0 23 -19 42 -43 42c-23 0 -42 -19 -42 -42v-175c0 -24 19 -43 42 -43z" />
    <glyph glyph-name="quotesingle" unicode="'" horiz-adv-x="185" 
d="M93 440c23 0 42 19 42 43v175c0 23 -19 42 -42 42c-24 0 -43 -19 -43 -42v-175c0 -24 19 -43 43 -43z" />
    <glyph glyph-name="semicolon" unicode=";" 
d="M247 292c0 -29 19 -50 47 -50c30 0 49 21 49 50s-19 50 -48 50c-27 0 -48 -21 -48 -50zM277 -187c12 0 23 5 32 14c38 42 46 92 46 127c0 38 -10 77 -26 101c-12 19 -39 25 -58 12c-20 -13 -26 -40 -13 -59c10 -15 26 -82 -12 -123c-16 -17 -15 -44 2 -60
c9 -8 19 -12 29 -12z" />
    <glyph glyph-name="slash" unicode="/" 
d="M167 -70c17 0 32 10 38 26l265 690c8 21 -2 44 -23 52s-44 -2 -52 -23l-265 -691c-8 -20 2 -43 23 -51c5 -2 10 -3 14 -3z" />
    <glyph glyph-name="underscore" unicode="_" 
d="M567 -123c24 0 43 20 43 43c0 24 -19 43 -43 43h-533c-24 0 -43 -19 -43 -43c0 -23 19 -43 43 -43h533z" />
    <glyph glyph-name="bracketleft" unicode="[" 
d="M364 -38c23 0 43 -19 43 -43c0 -23 -20 -42 -43 -43h-127c-23 0 -43 20 -43 43c0 3 0 6 1 9v750c-1 3 -1 6 -1 9c0 24 19 43 43 43h127c23 0 42 -19 42 -43c0 -23 -19 -42 -42 -42h-84v-683h84z" />
    <glyph glyph-name="bracketright" unicode="]" 
d="M406 -72c1 -3 1 -6 1 -9c0 -23 -20 -42 -43 -43h-127c-23 0 -43 20 -43 43c0 24 20 43 43 43h84v683h-84c-24 0 -43 19 -43 42c0 24 19 43 43 43h127c9 0 18 -3 25 -8c10 -7 17 -19 17 -35v-759z" />
    <glyph glyph-name="parenleft" unicode="(" 
d="M403 -125c18 0 34 11 41 29c8 23 -3 48 -26 56c-42 16 -86 60 -119 122c-38 71 -59 157 -59 243c0 87 21 173 59 243c33 62 77 107 119 123c23 8 34 33 26 56c-9 22 -34 34 -56 25c-63 -23 -122 -81 -166 -162c-22 -41 -39 -85 -50 -131c-13 -50 -19 -102 -19 -154
s6 -103 19 -153c11 -47 28 -91 50 -131c44 -82 103 -139 166 -163c5 -2 10 -3 15 -3z" />
    <glyph glyph-name="parenright" unicode=")" 
d="M197 -125c5 0 10 1 15 3c63 24 122 81 166 163c22 40 39 84 50 131c13 50 19 101 19 153s-6 104 -19 153c-11 47 -28 91 -50 132c-44 81 -103 139 -166 162c-22 9 -48 -3 -56 -25c-8 -23 3 -48 26 -57c42 -15 86 -60 119 -122c38 -70 59 -156 59 -243
c0 -86 -21 -172 -59 -243c-33 -62 -77 -106 -119 -122c-23 -8 -34 -33 -26 -56c7 -18 23 -29 41 -29z" />
    <glyph glyph-name="emdash" unicode="&#x2014;" 
d="M567 204c24 0 43 20 43 43c0 24 -19 43 -43 43h-533c-24 0 -43 -19 -43 -43c0 -23 19 -43 43 -43h533z" />
    <glyph glyph-name="endash" unicode="&#x2013;" 
d="M453 204c24 0 43 19 43 43c0 23 -19 43 -43 43h-306c-24 0 -43 -20 -43 -43c0 -24 19 -43 43 -43h306z" />
    <glyph glyph-name="hyphen" unicode="-" horiz-adv-x="592" 
d="M399 204c24 0 43 19 43 43c0 23 -19 43 -43 43h-206c-24 0 -43 -20 -43 -43c0 -24 19 -43 43 -43h206z" />
    <glyph glyph-name="quoteleft" unicode="&#x2018;" horiz-adv-x="221" 
d="M112 449c8 0 16 2 23 7c20 13 25 39 12 59c-10 15 -25 82 13 123c16 17 15 44 -3 60c-17 16 -44 15 -60 -2c-38 -42 -46 -92 -47 -127c0 -38 10 -77 26 -101c8 -12 22 -19 36 -19z" />
    <glyph glyph-name="quoteright" unicode="&#x2019;" horiz-adv-x="221" 
d="M109 709c-8 0 -16 -2 -23 -7c-20 -13 -25 -39 -12 -59c10 -15 25 -82 -13 -123c-16 -17 -15 -44 3 -60c17 -16 44 -15 60 2c38 42 46 92 47 127c0 38 -10 77 -26 101c-8 12 -22 19 -36 19z" />
    <glyph glyph-name="space" unicode=" " horiz-adv-x="300" 
 />
    <glyph glyph-name="dollar" unicode="$" 
d="M500 236c0 -73 -50 -146 -159 -158v-36c0 -23 -18 -42 -41 -42s-42 19 -42 42v37c-48 7 -86 25 -114 55c-34 34 -45 78 -45 107v3c0 23 19 42 41 42c23 0 42 -19 42 -42v-4v-1c0 -9 4 -30 21 -48c13 -13 32 -22 55 -28v163c-73 15 -152 44 -152 147c0 66 48 136 152 150
v36c0 23 19 41 42 41s41 -18 41 -41v-38c97 -18 131 -91 135 -132c3 -23 -14 -43 -37 -45c-22 -3 -42 13 -45 36c-2 8 -9 42 -53 56v-143c75 -16 159 -46 159 -157zM188 473c0 -35 17 -50 70 -63v130c-54 -11 -70 -45 -70 -67zM341 160c69 11 77 56 77 76
c0 42 -19 58 -77 73v-149z" />
    <glyph glyph-name="plus" unicode="+" 
d="M484 294c22 0 40 -18 40 -40s-18 -40 -40 -40h-145v-144c0 -22 -18 -40 -40 -40s-40 18 -40 40v144h-144c-23 0 -41 18 -41 40s18 40 41 40h144v145c0 22 18 40 40 40s40 -18 40 -40v-145h145z" />
    <glyph glyph-name="minus" unicode="&#x2212;" 
d="M532 204c24 0 43 20 43 43c0 24 -19 43 -43 43h-463c-24 0 -43 -19 -43 -43c0 -23 19 -43 43 -43h463z" />
    <glyph glyph-name="equal" unicode="=" 
d="M453 309c24 0 43 19 43 43c0 23 -19 43 -43 43h-306c-24 0 -43 -20 -43 -43c0 -24 19 -43 43 -43h306zM453 141c24 0 43 19 43 43c0 23 -19 43 -43 43h-306c-24 0 -43 -20 -43 -43c0 -24 19 -43 43 -43h306z" />
    <glyph glyph-name="greater" unicode="&#x3e;" 
d="M138 515c-15 0 -29 -8 -36 -22c-10 -20 -1 -44 19 -54l250 -122l-257 -130c-20 -10 -28 -34 -18 -54s34 -28 54 -18l330 167c14 7 22 21 22 36s-9 29 -23 36l-324 158c-5 2 -11 3 -17 3z" />
    <glyph glyph-name="less" unicode="&#x3c;" 
d="M455 111c15 0 29 8 36 22c10 20 1 44 -19 54l-250 122l257 130c20 10 28 34 18 54s-34 28 -54 18l-330 -167c-14 -7 -22 -21 -22 -36s9 -29 23 -36l324 -158c5 -2 11 -3 17 -3z" />
    <glyph glyph-name="percent" unicode="%" 
d="M147 -4c16 0 30 9 37 23l306 621c10 21 1 45 -19 56c-20 10 -46 1 -55 -19l-306 -621c-10 -21 -1 -45 19 -56c6 -3 12 -4 18 -4zM147 437c72 0 131 59 131 131c0 73 -59 132 -131 132c-73 0 -132 -59 -132 -132c0 -72 59 -131 132 -131zM147 617c27 0 49 -22 49 -49
s-22 -48 -49 -48s-49 21 -49 48s22 49 49 49zM453 -4c73 0 132 59 132 132c0 72 -59 131 -132 131c-72 0 -131 -59 -131 -131c0 -73 59 -132 131 -132zM453 177c27 0 50 -22 50 -49s-23 -49 -50 -49s-48 22 -48 49s21 49 48 49z" />
    <glyph glyph-name="at" unicode="@" 
d="M704 374c10 -43 14 -86 12 -129c-3 -76 -24 -150 -60 -208c-41 -68 -95 -106 -150 -106c-35 0 -64 11 -85 32c-18 20 -27 43 -30 65c-34 -22 -79 -41 -133 -41c-117 0 -169 70 -169 139c0 36 17 75 45 104c24 26 68 56 142 56c96 0 109 39 110 42c0 2 1 3 1 5
c-2 15 -6 31 -17 44c-14 18 -40 27 -76 27c-35 0 -61 -12 -79 -35c-13 -17 -17 -34 -17 -34c-4 -24 -27 -39 -51 -35c-24 5 -39 28 -35 52c1 3 8 37 34 70c24 32 69 69 148 69c32 0 60 -5 85 -15c23 -10 43 -25 59 -44c28 -33 37 -77 37 -126c1 -110 2 -185 2 -221v-11
c-1 -13 -2 -41 7 -50c5 -5 16 -6 22 -6c19 0 49 20 76 64c27 46 44 105 47 166c1 36 -2 71 -10 107c-9 39 -23 77 -42 115c-18 35 -44 65 -77 91c-32 24 -70 43 -111 55c-84 24 -174 19 -247 -16c-72 -35 -127 -95 -154 -170c-26 -76 -22 -157 12 -229c11 -22 1 -48 -20 -58
c-22 -11 -48 -1 -59 20c-22 48 -35 98 -37 149c-2 50 5 100 22 147s42 90 75 127c35 39 76 70 123 93c92 44 205 51 309 21c52 -15 99 -39 140 -70c44 -33 78 -74 102 -120c23 -44 39 -90 49 -136zM258 74c68 0 117 51 131 68v76c-31 -13 -68 -20 -113 -20
c-81 0 -99 -53 -99 -72c0 -33 29 -52 81 -52z" />
    <glyph glyph-name="asciicircum" unicode="^" 
d="M177 370c15 0 29 8 36 23l84 176l90 -177c10 -20 34 -28 54 -18s28 34 18 54l-127 250c-7 14 -20 22 -36 22c-15 0 -29 -9 -36 -23l-119 -250c-10 -20 -2 -44 18 -53c6 -3 12 -4 18 -4z" />
    </font>
</defs>
</svg>
