<?xml version="1.0" standalone="no"?>
<!DOCTYPE svg PUBLIC "-//W3C//DTD SVG 1.1//EN" "http://www.w3.org/Graphics/SVG/1.1/DTD/svg11.dtd" >
<svg xmlns="http://www.w3.org/2000/svg" xmlns:xlink="http://www.w3.org/1999/xlink" version="1.1">
<metadata>
Created by FontForge 20170910 at Wed Jun  6 11:24:04 2018
 By Jimmy Wärting
copyright missing
</metadata>
<defs>
<font id="NationalPark-Heavy" horiz-adv-x="501" >
  <font-face 
    font-family="National Park Heavy"
    font-weight="900"
    font-stretch="normal"
    units-per-em="1000"
    panose-1="0 0 10 0 0 0 0 0 0 0"
    ascent="800"
    descent="-200"
    x-height="487"
    cap-height="700"
    bbox="24.5423 -262 956 971.25"
    underline-thickness="50"
    underline-position="-100"
    unicode-range="U+0020-2212"
  />
<missing-glyph horiz-adv-x="500" 
d="M410 800v-1000h-317v1000h317zM333 733h-165v-33h65v-37h-66v-33h166v33h-66v37h66v33zM267 604h-100v-104h166v34h-66v70zM233 570v-36h-33v36h33zM333 473h-166v-33h66v-37h-66v-33h100v70h66v33zM333 413h-33v-66h-133v-34h166v100zM333 291h-100v-56h34v23h33v-47
h-100v80h-33v-113h166v113zM333 118h-166v-113h166v113zM300 85v-47h-100v47h100zM333 -18h-166v-33h70l-70 -47v-33h166v33h-102l70 47h32v33z" />
    <glyph glyph-name=".notdef" horiz-adv-x="500" 
d="M410 800v-1000h-317v1000h317zM333 733h-165v-33h65v-37h-66v-33h166v33h-66v37h66v33zM267 604h-100v-104h166v34h-66v70zM233 570v-36h-33v36h33zM333 473h-166v-33h66v-37h-66v-33h100v70h66v33zM333 413h-33v-66h-133v-34h166v100zM333 291h-100v-56h34v23h33v-47
h-100v80h-33v-113h166v113zM333 118h-166v-113h166v113zM300 85v-47h-100v47h100zM333 -18h-166v-33h70l-70 -47v-33h166v33h-102l70 47h32v33z" />
    <glyph glyph-name="A" unicode="A" horiz-adv-x="617" 
d="M588 90c12 -33 -5 -72 -39 -85c-41 -16 -78 8 -89 37l-52 139h-199l-52 -138c-14 -37 -51 -52 -89 -40c-39 13 -50 56 -38 90l217 571c9 24 37 36 62 36s54 -12 63 -36zM356 319l-47 129l-48 -129h95z" />
    <glyph glyph-name="Aacute" unicode="&#xc1;" horiz-adv-x="618" 
d="M258 738l1 -1c-25 28 -23 71 5 96v1l96 81l-1 -1c28 25 72 22 96 -5l1 -1c25 -29 21 -73 -8 -97l-94 -81l-1 -1c-32 -25 -76 -16 -95 9zM589 93c13 -35 -4 -75 -39 -89c-36 -14 -76 3 -89 38l-54 138h-198l-52 -138c-14 -36 -59 -50 -87 -38c-36 12 -54 53 -41 87
l212 566c11 26 37 43 63 43h1c28 0 52 -17 64 -42zM260 317h94l-48 124z" />
    <glyph glyph-name="Acircumflex" unicode="&#xc2;" horiz-adv-x="619" 
d="M231 732c-28 -27 -71 -24 -96 4c-24 27 -22 71 6 97l123 110c26 23 65 23 91 0l123 -110c28 -26 30 -70 6 -97c-23 -25 -63 -31 -96 -4l-79 69zM589 94c14 -37 -4 -75 -40 -90c-34 -13 -74 4 -88 39l-53 137h-199l-51 -137v1c-11 -32 -46 -52 -87 -40
c-36 13 -55 53 -41 89l212 563c8 26 35 44 63 44c29 0 54 -18 65 -43zM261 318h94l-48 123z" />
    <glyph glyph-name="Adieresis" unicode="&#xc4;" horiz-adv-x="617" 
d="M225 716c-38 0 -69 30 -69 68v15c0 38 31 69 69 69s68 -30 68 -69v-15c0 -38 -31 -68 -68 -68zM383 716c-37 0 -67 30 -67 68v15c0 38 30 69 67 69c38 0 69 -30 69 -69v-15c0 -38 -31 -68 -69 -68zM587 93c14 -35 -3 -73 -39 -89c-35 -13 -75 4 -88 39l-53 138h-199
l-52 -137c-9 -29 -47 -53 -87 -40c-35 14 -53 54 -39 89l210 563c11 27 37 44 64 44c28 0 52 -17 64 -43zM259 317h95l-48 124z" />
    <glyph glyph-name="Agrave" unicode="&#xc0;" horiz-adv-x="617" 
d="M166 810c-30 24 -34 67 -9 97c26 29 69 32 97 7v1l96 -81v-1c27 -26 30 -67 5 -95c-19 -29 -68 -33 -95 -9l-95 82zM588 92c12 -37 -5 -74 -40 -88c-34 -14 -74 4 -88 39l-53 137h-199l-51 -136c-12 -32 -51 -56 -88 -40c-35 13 -53 52 -40 88l212 563c7 22 30 45 63 45
c29 0 54 -17 64 -44zM260 317h94l-48 123z" />
    <glyph glyph-name="Amacron" unicode="&#x100;" horiz-adv-x="618" 
d="M244 721c-33 0 -67 28 -67 69c0 37 31 68 67 68l126 -1c37 0 68 -31 68 -68s-31 -68 -68 -68h-126zM589 93c13 -35 -4 -75 -39 -89c-36 -14 -75 4 -89 39l-53 137h-198l-52 -137c-13 -35 -57 -52 -88 -39c-35 12 -53 52 -41 88v1l212 563c11 27 37 44 63 44h1
c28 0 53 -17 64 -43zM261 316h94l-48 123z" />
    <glyph glyph-name="Aring" unicode="&#xc5;" horiz-adv-x="618" 
d="M588 93c14 -34 -4 -75 -39 -89c-34 -14 -74 4 -88 38l-54 139h-198l-52 -138c-14 -35 -58 -52 -88 -39c-35 14 -53 52 -40 88l198 529c-49 28 -82 82 -82 141c0 88 74 162 162 162s162 -72 162 -162c0 -61 -35 -114 -86 -142zM307 790c-14 0 -27 -12 -27 -28
s13 -26 27 -26s27 12 27 26c0 16 -11 28 -27 28zM260 317h94l-48 123z" />
    <glyph glyph-name="Atilde" unicode="&#xc3;" horiz-adv-x="617" 
d="M139 721c-99 38 6 194 107 194c78 0 101 -61 125 -61c30 0 60 75 121 39c73 -43 -12 -178 -121 -178c-86 0 -91 62 -125 62c-24 0 -46 -80 -107 -56zM588 93c13 -35 -4 -75 -39 -89c-34 -14 -74 4 -89 38l-53 138h-198l-51 -137v-1c-12 -25 -37 -42 -65 -42
c-9 0 -16 1 -24 4h1c-35 12 -53 51 -41 87v1l211 563c13 30 35 45 66 45c28 0 52 -18 62 -45v1zM260 316h94l-48 125z" />
    <glyph glyph-name="AE" unicode="&#xc6;" horiz-adv-x="910" 
d="M817 140c38 0 68 -31 68 -68c0 -38 -30 -67 -68 -67h-368c-37 0 -67 29 -67 67v226h-112l-115 -258c-11 -24 -33 -38 -60 -40h-1c-10 0 -21 3 -28 7c-34 14 -50 52 -36 87l252 565c13 29 42 44 69 41h434c37 0 68 -30 68 -68s-30 -68 -68 -68h-268v-130h218
c37 0 68 -31 68 -68s-31 -68 -68 -68h-218v-158h300zM330 434h52v117z" />
    <glyph glyph-name="B" unicode="B" horiz-adv-x="547" 
d="M454 375c42 -40 68 -97 68 -160c0 -119 -97 -215 -214 -215h-215c-39 0 -68 31 -68 68v1v1v564c0 36 29 66 68 66h215h7c103 -6 185 -91 185 -197c0 -48 -17 -93 -46 -128zM160 567v-132h144c32 0 63 33 63 68c0 36 -29 64 -63 64h-144zM308 134c44 0 79 37 79 81
c0 48 -36 87 -79 87h-148v-168h148z" />
    <glyph glyph-name="C" unicode="C" horiz-adv-x="566" 
d="M302 0c125 0 220 96 238 234c6 41 -17 80 -59 80c-45 0 -64 -27 -68 -57c-15 -76 -54 -122 -111 -122c-86 0 -141 83 -141 215c0 135 48 214 135 214c47 0 93 -38 93 -69c0 -37 31 -67 68 -67c39 0 67 27 67 67c0 113 -103 205 -228 205c-165 0 -271 -137 -271 -350
c0 -215 108 -350 277 -350z" />
    <glyph glyph-name="Ccedilla" unicode="&#xc7;" horiz-adv-x="571" 
d="M488 308c36 -4 62 -38 58 -76c-17 -112 -78 -194 -162 -227c33 -28 54 -71 54 -115c0 -83 -69 -152 -153 -152c-37 0 -67 32 -67 69c0 38 30 68 67 68c9 0 15 6 15 15s-6 15 -15 15c-37 0 -67 31 -67 69v29c-119 39 -193 166 -193 342c0 220 102 355 272 355
c125 0 232 -98 232 -210c0 -38 -30 -69 -69 -69c-37 0 -67 32 -67 69c0 36 -47 74 -96 74c-89 0 -135 -77 -135 -219c0 -138 52 -218 138 -218c56 0 99 47 110 124c5 37 42 62 78 57z" />
    <glyph glyph-name="D" unicode="D" horiz-adv-x="550" 
d="M525 350c0 -199 -98 -331 -257 -348c-5 -1 -10 -2 -15 -2h-161c-38 0 -67 31 -67 67v560v3v3c0 37 28 67 67 67h161h3c164 -4 269 -142 269 -350zM232 136c143 0 157 143 157 214c0 133 -53 215 -140 215h-89v-429h72z" />
    <glyph glyph-name="E" unicode="E" horiz-adv-x="556" 
d="M463 136c39 0 68 -29 68 -68c0 -35 -31 -68 -68 -68h-370c-37 0 -68 33 -68 68v565c0 6 1 12 2 17c7 30 32 50 66 50h337c42 0 70 -28 70 -68c0 -39 -29 -67 -70 -67h-269v-132h181c37 0 68 -31 68 -67c0 -39 -27 -68 -68 -68h-181v-162h302z" />
    <glyph glyph-name="Eacute" unicode="&#xc9;" horiz-adv-x="557" 
d="M318 726c-28 -25 -75 -21 -95 7c-22 26 -23 69 7 95l1 1l95 82c27 24 70 20 94 -9c25 -28 22 -70 -6 -95l-1 -1zM463 136c38 0 69 -30 69 -68c0 -39 -30 -68 -69 -68h-369c-38 0 -69 30 -69 68v559v2v3c0 38 31 68 69 68h334c38 0 68 -30 68 -68s-30 -69 -68 -69h-266
v-133h181c38 0 68 -30 68 -68c0 -37 -30 -68 -68 -68h-181v-158h301z" />
    <glyph glyph-name="Ecircumflex" unicode="&#xca;" horiz-adv-x="557" 
d="M186 728c-30 -25 -73 -22 -96 7c-25 25 -23 70 6 95l122 110c27 24 66 23 90 0l123 -110c28 -25 30 -69 6 -96c-25 -28 -69 -31 -96 -6l-77 69zM463 136c38 0 69 -31 69 -68c0 -38 -31 -68 -69 -68h-369c-39 0 -69 29 -69 68v559v3v2c0 38 31 68 68 68h335
c38 0 68 -30 68 -68s-30 -68 -68 -68h-267v-133h182c38 0 68 -30 68 -68s-30 -68 -68 -68h-182v-159h302z" />
    <glyph glyph-name="Edieresis" unicode="&#xcb;" horiz-adv-x="556" 
d="M195 712c-37 0 -68 31 -68 69v15c0 38 30 67 68 67s68 -29 68 -67v-15c0 -38 -30 -69 -68 -69zM355 712c-38 0 -69 31 -69 69v15c0 37 31 67 69 67s68 -30 68 -67v-15c0 -38 -30 -69 -68 -69zM463 136c38 0 68 -30 68 -68s-30 -68 -68 -68h-370c-38 0 -68 30 -68 68v559
v2v2c0 38 30 69 68 69h335c38 0 69 -31 69 -69s-31 -68 -69 -68h-267v-132h182c37 0 67 -31 67 -69s-30 -68 -67 -68h-182v-158h302z" />
    <glyph glyph-name="Egrave" unicode="&#xc8;" horiz-adv-x="557" 
d="M139 807c-28 25 -32 68 -5 97c24 28 66 31 95 7l95 -81c28 -25 32 -67 6 -96c-25 -29 -62 -32 -95 -9zM464 137c37 0 68 -31 68 -69s-31 -68 -68 -68h-370c-38 0 -69 30 -69 68v559v2v3c0 38 30 68 68 68h335c38 0 68 -30 68 -68s-30 -68 -68 -68h-266v-133h181
c38 0 68 -31 68 -69c0 -37 -30 -67 -68 -67h-181v-158h302z" />
    <glyph glyph-name="Emacron" unicode="&#x112;" horiz-adv-x="556" 
d="M201 721c-33 0 -69 29 -69 68c0 38 31 68 69 68h125c38 0 68 -30 68 -68c0 -37 -30 -68 -68 -68h-125zM464 135c37 0 67 -30 67 -67c0 -38 -30 -68 -67 -68h-372c-37 0 -67 30 -67 68v559v2v2c0 38 30 69 67 69h336c38 0 69 -31 69 -69c0 -37 -31 -67 -69 -67h-267v-134
h182c37 0 67 -30 67 -67c0 -38 -30 -69 -67 -69h-182v-159h303z" />
    <glyph glyph-name="F" unicode="F" horiz-adv-x="544" 
d="M451 700c39 0 68 -31 68 -69s-28 -68 -68 -68h-289v-131h192c38 0 69 -31 69 -70c0 -37 -32 -69 -69 -69h-192v-225c0 -39 -30 -68 -69 -68c-41 0 -68 29 -68 68v564c0 39 27 68 68 68h358z" />
    <glyph glyph-name="G" unicode="G" horiz-adv-x="550" 
d="M291 0c137 0 234 86 234 209v103c0 39 -28 66 -66 66h-135c-37 0 -67 -30 -67 -66c0 -37 29 -66 67 -66h67v-37c0 -46 -37 -76 -100 -76c-83 0 -132 73 -132 201c0 125 62 233 132 233c71 0 87 -55 93 -71c13 -35 46 -54 80 -48c39 8 62 44 51 82
c-30 107 -113 170 -224 170c-156 0 -266 -154 -266 -363c0 -193 112 -337 266 -337z" />
    <glyph glyph-name="H" unicode="H" horiz-adv-x="556" 
d="M463 700c37 0 68 -32 68 -68v-564c0 -39 -29 -68 -68 -68s-68 29 -68 68v230h-234v-230c0 -39 -28 -68 -67 -68c-40 0 -69 29 -69 68v564c0 36 31 68 69 68c36 0 67 -32 67 -68v-199h234v199c0 36 32 68 68 68z" />
    <glyph glyph-name="I" unicode="I" horiz-adv-x="187" 
d="M93 0c39 0 69 29 69 68v564c0 39 -30 68 -69 68s-68 -29 -68 -68v-564c0 -39 29 -68 68 -68z" />
    <glyph glyph-name="Iacute" unicode="&#xcd;" horiz-adv-x="300" 
d="M156 728l96 82c28 25 30 67 7 95c-26 31 -71 31 -96 9l-95 -82c-29 -25 -33 -67 -7 -97s70 -30 95 -7zM93 0c38 0 69 30 69 68v564c0 38 -31 69 -69 69s-68 -31 -68 -69v-564c0 -38 30 -68 68 -68z" />
    <glyph glyph-name="Icircumflex" unicode="&#xce;" horiz-adv-x="431" 
d="M389 734c25 29 22 72 -5 96l-122 110c-27 24 -66 24 -93 0l-122 -110c-27 -25 -30 -68 -6 -96c26 -28 70 -30 97 -5l77 71l77 -70c24 -27 68 -25 97 4zM215 0c38 0 68 30 68 68v564c0 38 -30 68 -68 68s-68 -30 -68 -68v-564c0 -38 30 -68 68 -68z" />
    <glyph glyph-name="Idieresis" unicode="&#xcf;" horiz-adv-x="345" 
d="M94 714c37 0 67 30 67 68v15c0 39 -30 69 -67 69c-38 0 -69 -30 -69 -69v-15c0 -38 31 -68 69 -68zM251 714c38 0 69 30 69 68v15c0 39 -31 69 -69 69c-37 0 -67 -30 -67 -69v-15c0 -38 30 -68 67 -68zM172 0c38 0 69 30 69 69v563c0 38 -31 68 -69 68
c-37 0 -68 -30 -68 -68v-563c0 -39 31 -69 68 -69z" />
    <glyph glyph-name="Igrave" unicode="&#xcc;" horiz-adv-x="281" 
d="M240 734c24 29 21 72 -7 96l-95 82c-27 24 -71 21 -96 -7c-24 -28 -22 -71 7 -96l95 -82c34 -25 71 -18 96 7zM188 0c38 0 68 30 68 68v563c0 39 -30 69 -68 69s-68 -31 -68 -69v-563c0 -38 30 -68 68 -68z" />
    <glyph glyph-name="Imacron" unicode="&#x12a;" horiz-adv-x="311" 
d="M93 720h125c37 0 68 31 68 68c0 38 -31 69 -68 69h-125c-37 0 -68 -31 -68 -69c0 -36 32 -68 68 -68zM156 0c38 0 69 31 69 68v564c0 37 -31 68 -69 68s-69 -31 -69 -68v-564c0 -37 31 -68 69 -68z" />
    <glyph glyph-name="J" unicode="J" horiz-adv-x="450" 
d="M229 0c113 0 196 90 196 214v417c0 40 -26 69 -67 69c-38 0 -68 -30 -68 -69v-417c0 -48 -22 -78 -61 -78c-47 0 -69 22 -69 68v47c0 41 -30 70 -67 70c-39 0 -68 -30 -68 -70v-47c0 -115 88 -204 204 -204z" />
    <glyph glyph-name="K" unicode="K" horiz-adv-x="554" 
d="M515 110c24 -35 17 -79 -15 -100c-35 -20 -75 -9 -99 26l-179 262l-61 -64v-164c0 -40 -30 -70 -68 -70s-68 30 -68 70v560c0 39 30 70 68 70s68 -31 68 -70v-203l231 238c30 28 71 30 100 3v-1c28 -26 26 -69 -5 -97l-171 -176z" />
    <glyph glyph-name="L" unicode="L" horiz-adv-x="562" 
d="M467 136c39 0 70 -30 70 -68s-31 -68 -70 -68h-374c-39 0 -68 29 -68 68v562c0 39 31 70 69 70s68 -31 68 -70v-494h305z" />
    <glyph glyph-name="M" unicode="M" horiz-adv-x="651" 
d="M557 700c38 0 69 -31 69 -69v-562c0 -38 -30 -69 -67 -69s-68 31 -68 69v278l-87 -282l-1 -2c-7 -15 -26 -63 -78 -63c-51 0 -70 48 -77 63l-1 2l-87 282v-278c0 -38 -31 -69 -68 -69s-67 31 -67 69v562c0 38 31 69 69 69h45c28 0 53 -17 61 -43l1 -1l124 -378l125 378
l1 1c8 26 33 43 61 43h45z" />
    <glyph glyph-name="N" unicode="N" horiz-adv-x="549" 
d="M457 0c39 0 67 29 67 67v564c0 38 -28 69 -67 69c-37 0 -67 -31 -67 -69v-341l-194 365c-15 30 -40 45 -73 45h-31c-39 0 -67 -29 -67 -67v-564c0 -38 29 -69 68 -69c37 0 67 31 67 69v361l205 -376c11 -19 26 -54 69 -54h23z" />
    <glyph glyph-name="Nacute" unicode="&#x143;" horiz-adv-x="557" 
d="M275 710c16 0 32 7 44 16l95 81l1 1c28 25 31 66 7 95l-1 1c-24 27 -67 31 -95 7l-95 -81v-1c-29 -25 -31 -68 -6 -96l-1 1c10 -15 32 -24 51 -24zM463 0c38 0 69 30 69 68v564c0 38 -30 68 -69 68c-38 0 -68 -30 -68 -68v-342l-207 376c-13 21 -34 34 -59 34h-35
c-38 0 -69 -30 -69 -68v-564c0 -38 31 -68 69 -68s68 30 68 68v363l220 -395c10 -22 35 -36 59 -36h22z" />
    <glyph glyph-name="Ntilde" unicode="&#xd1;" horiz-adv-x="557" 
d="M341 715c109 0 195 136 121 178c-70 39 -76 -40 -121 -40c-39 0 -44 61 -125 61c-101 0 -207 -155 -123 -188c76 -29 94 51 123 51c33 0 22 -62 125 -62zM463 0c38 0 69 30 69 69v563c0 38 -30 68 -69 68c-38 0 -68 -31 -68 -68v-343l-208 377c-12 21 -34 34 -59 34h-35
c-37 0 -68 -31 -68 -68v-563c0 -39 31 -69 68 -69c38 0 69 30 69 69v361l219 -395l-1 2c11 -22 35 -37 60 -37h23z" />
    <glyph glyph-name="O" unicode="O" horiz-adv-x="625" 
d="M312 -17c160 0 288 165 288 366c0 202 -129 367 -288 367s-287 -165 -287 -367s128 -366 287 -366zM312 575c80 0 147 -101 147 -226s-67 -226 -147 -226c-79 0 -147 102 -147 226s68 226 147 226z" />
    <glyph glyph-name="Oacute" unicode="&#xd3;" horiz-adv-x="625" 
d="M335 760l93 80c30 26 30 68 8 93c-24 28 -65 32 -93 8l-93 -79c-28 -24 -31 -66 -7 -93c26 -28 66 -29 92 -9zM312 -17c160 0 288 165 288 366c0 202 -129 367 -288 367s-287 -165 -287 -367s128 -366 287 -366zM312 575c80 0 147 -101 147 -226s-67 -226 -147 -226
c-79 0 -147 102 -147 226s68 226 147 226z" />
    <glyph glyph-name="Ocircumflex" unicode="&#xd4;" horiz-adv-x="625" 
d="M478 757c24 26 22 68 -4 92l-118 105c-24 23 -62 23 -86 0l-118 -105c-28 -25 -26 -68 -5 -90c24 -28 65 -31 92 -6l74 67l76 -69c30 -23 71 -17 89 6zM312 -17c160 0 288 165 288 366c0 202 -129 367 -288 367s-287 -165 -287 -367s128 -366 287 -366zM313 575
c80 0 147 -101 147 -226s-67 -226 -147 -226c-79 0 -147 102 -147 226s68 226 147 226z" />
    <glyph glyph-name="Odieresis" unicode="&#xd6;" horiz-adv-x="625" 
d="M233 736c38 0 68 30 68 68v16c0 38 -30 68 -68 68c-39 0 -69 -30 -69 -68v-16c0 -38 30 -68 69 -68zM391 736c39 0 69 30 69 68v16c0 38 -30 68 -69 68c-38 0 -68 -30 -68 -68v-16c0 -38 30 -68 68 -68zM312 -17c160 0 288 165 288 366c0 202 -129 367 -288 367
s-287 -165 -287 -367s128 -366 287 -366zM313 575c80 0 147 -101 147 -226s-67 -226 -147 -226c-79 0 -147 102 -147 226s68 226 147 226z" />
    <glyph glyph-name="Ograve" unicode="&#xd2;" horiz-adv-x="625" 
d="M334 759c24 27 20 68 -7 91l-92 79c-27 24 -69 20 -92 -8c-24 -27 -20 -68 7 -92l93 -79c29 -23 68 -19 91 9zM312 -17c160 0 288 165 288 366c0 202 -129 367 -288 367s-287 -165 -287 -367s128 -366 287 -366zM313 575c80 0 147 -101 147 -226s-67 -226 -147 -226
c-79 0 -147 102 -147 226s68 226 147 226z" />
    <glyph glyph-name="Otilde" unicode="&#xd5;" horiz-adv-x="625" 
d="M379 741c94 0 187 131 116 171c-67 37 -73 -39 -116 -39c-37 0 -42 59 -120 59c-97 0 -198 -150 -118 -180c73 -28 90 48 118 48c32 0 39 -59 120 -59zM312 -17c160 0 288 165 288 366c0 202 -129 367 -288 367s-287 -165 -287 -367s128 -366 287 -366zM313 575
c80 0 147 -101 147 -226s-67 -226 -147 -226c-79 0 -147 102 -147 226s68 226 147 226z" />
    <glyph glyph-name="OE" unicode="&#x152;" horiz-adv-x="981" 
d="M888 135c39 0 68 -31 68 -68c0 -39 -29 -69 -68 -69h-371c-31 0 -56 20 -65 48c-43 -34 -93 -54 -147 -54c-155 0 -280 161 -280 359c0 197 124 358 280 358c54 0 105 -20 148 -54c9 26 33 45 64 45h337c37 0 68 -30 68 -68c0 -37 -31 -68 -68 -68h-269v-134h182
c38 0 68 -30 68 -68s-30 -68 -68 -68h-182v-159h303zM305 130c77 0 143 99 143 221c0 121 -66 220 -143 220c-78 0 -143 -99 -143 -220c0 -122 66 -221 143 -221z" />
    <glyph glyph-name="P" unicode="P" horiz-adv-x="553" 
d="M313 700c116 0 215 -98 215 -216s-99 -216 -215 -216h-151v-198c0 -39 -30 -70 -68 -70c-39 0 -69 31 -69 70v562c0 39 29 68 68 68h220zM313 407c43 0 79 36 79 77s-36 79 -79 79h-151v-156h151z" />
    <glyph glyph-name="Q" unicode="Q" horiz-adv-x="670" 
d="M550 153c62 26 128 -43 77 -109c-16 -19 -39 -54 -83 -54c-34 0 -56 23 -86 46c-1 1 -2 2 -4 3c-42 -31 -90 -49 -142 -49c-158 0 -287 164 -287 363c0 198 128 361 287 361c158 0 286 -163 286 -361c0 -74 -18 -142 -48 -200zM312 130c10 0 20 1 29 4l-45 39
c-32 27 -37 67 -15 96c23 29 65 31 98 5l57 -46c15 35 24 78 24 125c0 127 -66 223 -148 223c-79 0 -149 -101 -149 -223s69 -223 149 -223z" />
    <glyph glyph-name="R" unicode="R" horiz-adv-x="567" 
d="M535 99c17 -37 3 -78 -32 -94c-36 -15 -73 -1 -90 34l-129 263h-122v-232c0 -40 -28 -70 -68 -70c-38 0 -69 30 -69 70v562c0 39 29 68 68 68h246c108 0 198 -89 198 -200c0 -78 -46 -145 -111 -177zM162 563v-125h177c32 0 62 30 62 62c0 34 -29 63 -62 63h-177z" />
    <glyph glyph-name="S" unicode="S" horiz-adv-x="552" 
d="M281 0c143 0 246 84 246 206c0 165 -147 187 -234 202c-105 22 -135 41 -135 80c0 48 42 80 114 80c52 0 72 -42 95 -79c19 -31 46 -44 76 -37c42 8 63 54 44 96c-43 97 -119 152 -215 152c-146 0 -247 -87 -247 -212c0 -162 150 -188 242 -205c111 -20 127 -31 127 -77
c0 -43 -44 -73 -113 -73c-52 0 -98 30 -129 87c-17 29 -48 43 -78 31c-42 -11 -57 -57 -36 -99c41 -93 138 -152 243 -152z" />
    <glyph glyph-name="T" unicode="T" horiz-adv-x="596" 
d="M501 700c41 0 70 -30 70 -67c0 -38 -29 -68 -70 -68h-131v-495c0 -39 -30 -70 -67 -70c-40 0 -68 31 -68 70v495h-140c-41 0 -70 30 -70 68c0 37 29 67 70 67h406z" />
    <glyph glyph-name="U" unicode="U" horiz-adv-x="562" 
d="M469 700c39 0 68 -30 68 -71v-392c0 -148 -102 -246 -256 -246c-149 0 -256 101 -256 246v392c0 41 29 71 69 71c39 0 68 -30 68 -71v-392c0 -63 50 -108 119 -108c70 0 120 45 120 108v392c0 41 29 71 68 71z" />
    <glyph glyph-name="Uacute" unicode="&#xda;" horiz-adv-x="562" 
d="M336 755c-24 -21 -64 -18 -86 7c-23 26 -20 64 6 86l86 75c27 21 64 19 87 -7s19 -65 -7 -88zM469 700c39 0 68 -30 68 -71v-392c0 -148 -102 -246 -256 -246c-149 0 -256 101 -256 246v392c0 41 29 71 69 71c39 0 68 -30 68 -71v-392c0 -63 50 -108 119 -108
c70 0 120 45 120 108v392c0 41 29 71 68 71z" />
    <glyph glyph-name="Ucircumflex" unicode="&#xdb;" horiz-adv-x="562" 
d="M212 757c-25 -23 -66 -21 -89 5s-21 66 5 88l113 102c24 22 61 22 84 0l113 -102c26 -23 28 -63 5 -88c-22 -26 -61 -29 -88 -6l-72 66zM469 700c39 0 68 -30 68 -71v-392c0 -148 -102 -246 -256 -246c-149 0 -256 101 -256 246v392c0 41 29 71 69 71c39 0 68 -30 68 -71
v-392c0 -63 50 -108 119 -108c70 0 120 45 120 108v392c0 41 29 71 68 71z" />
    <glyph glyph-name="Udieresis" unicode="&#xdc;" horiz-adv-x="562" 
d="M204 736c-39 0 -69 30 -69 68v16c0 38 30 68 69 68c38 0 68 -30 68 -68v-16c0 -38 -30 -68 -68 -68zM362 736c-38 0 -68 30 -68 68v16c0 38 30 68 68 68c39 0 69 -30 69 -68v-16c0 -38 -30 -68 -69 -68zM469 700c39 0 68 -30 68 -71v-392c0 -148 -102 -246 -256 -246
c-149 0 -256 101 -256 246v392c0 41 29 71 69 71c39 0 68 -30 68 -71v-392c0 -63 50 -108 119 -108c70 0 120 45 120 108v392c0 41 29 71 68 71z" />
    <glyph glyph-name="Ugrave" unicode="&#xd9;" horiz-adv-x="562" 
d="M144 829c-27 24 -31 65 -7 92c23 28 65 32 92 8l92 -79c27 -23 31 -64 7 -91c-23 -28 -62 -32 -91 -9zM469 700c39 0 68 -30 68 -71v-392c0 -148 -102 -246 -256 -246c-149 0 -256 101 -256 246v392c0 41 29 71 69 71c39 0 68 -30 68 -71v-392c0 -63 50 -108 119 -108
c70 0 120 45 120 108v392c0 41 29 71 68 71z" />
    <glyph glyph-name="Umacron" unicode="&#x16a;" horiz-adv-x="562" 
d="M219 721h125c38 0 68 31 68 68c0 38 -30 68 -68 68h-125c-38 0 -69 -30 -69 -68c0 -39 36 -68 69 -68zM469 700c39 0 68 -30 68 -71v-392c0 -148 -102 -246 -256 -246c-149 0 -256 101 -256 246v392c0 41 29 71 69 71c39 0 68 -30 68 -71v-392c0 -63 50 -108 119 -108
c70 0 120 45 120 108v392c0 41 29 71 68 71z" />
    <glyph glyph-name="V" unicode="V" horiz-adv-x="593" 
d="M296 263l-143 392c-14 36 -50 54 -85 41c-36 -12 -52 -51 -38 -88l200 -566l1 -3c12 -24 37 -39 65 -39s54 16 65 40v2l202 564c14 39 -4 79 -42 91c-39 11 -75 -6 -88 -43z" />
    <glyph glyph-name="W" unicode="W" horiz-adv-x="797" 
d="M639 649c23 87 155 53 130 -41l-144 -558c-8 -30 -34 -50 -64 -50h-3c-30 0 -57 20 -65 49l-94 329l-94 -329c-9 -29 -36 -49 -65 -49h-3c-30 0 -56 20 -65 51l-143 556c-28 102 108 125 129 42l85 -321l89 322c8 29 32 49 59 49h15c28 0 52 -20 59 -49l90 -322z" />
    <glyph glyph-name="X" unicode="X" horiz-adv-x="583" 
d="M545 108c22 -32 16 -73 -16 -96c-31 -23 -74 -16 -97 17l-141 202l-140 -201c-23 -33 -66 -41 -96 -18c-33 22 -39 63 -17 96l169 243l-168 241c-22 33 -16 74 17 96h-1c31 23 74 15 97 -18l139 -199l140 200l1 1c23 32 66 39 97 16c32 -23 37 -65 14 -97l1 1l-169 -241z
" />
    <glyph glyph-name="Y" unicode="Y" horiz-adv-x="591" 
d="M538 687c33 -24 37 -66 12 -98l-198 -259v-260c0 -40 -29 -70 -67 -70c-39 0 -68 30 -68 70v262l-179 262c-22 33 -16 75 15 96c32 20 72 11 94 -21l138 -204l158 207c24 32 65 38 95 15z" />
    <glyph glyph-name="Ydieresis" unicode="&#x178;" horiz-adv-x="593" 
d="M214 714c-37 0 -68 29 -68 68v15c0 38 31 68 68 68c40 0 70 -30 70 -68v-15c0 -39 -31 -68 -70 -68zM374 714c-38 0 -68 29 -68 68v15c0 38 30 68 68 68c37 0 68 -30 68 -68v-15c0 -39 -31 -68 -68 -68zM539 687c32 -21 39 -66 15 -96v1l-195 -263v-261
c0 -37 -31 -68 -69 -68c-37 0 -68 31 -68 68v261l-185 265c-22 30 -14 73 18 94c30 22 70 16 94 -18l143 -202l154 204l-1 -1c21 32 66 39 96 15z" />
    <glyph glyph-name="Z" unicode="Z" horiz-adv-x="549" 
d="M454 0c39 0 70 30 70 69s-30 68 -70 68h-240l298 455l2 3c23 47 -8 105 -57 105h-332c-40 0 -70 -29 -70 -68s30 -69 70 -69h208l-299 -455l-1 -2c-24 -48 6 -106 57 -106h364z" />
    <glyph glyph-name="a" unicode="a" 
d="M424 124c32 -7 52 -30 52 -62c0 -39 -29 -62 -75 -62c-32 0 -58 13 -77 34c-32 -19 -73 -34 -121 -34c-106 0 -178 62 -178 151c0 96 83 169 195 169c41 0 74 10 76 15c-2 22 -29 35 -62 35c-77 0 -77 -57 -126 -57c-47 0 -78 39 -62 84c15 42 83 103 188 103
c118 0 189 -66 189 -177v-4c1 -89 1 -157 1 -195zM203 127c44 0 78 28 94 45v31c-22 -6 -47 -9 -77 -9c-42 0 -68 -18 -68 -43c0 -15 14 -24 51 -24z" />
    <glyph glyph-name="aacute" unicode="&#xe1;" 
d="M306 590c-26 -19 -60 -20 -86 8c-21 26 -18 63 7 84l83 71c25 21 64 18 85 -8s18 -63 -7 -84zM424 124c32 -7 52 -30 52 -62c0 -39 -29 -62 -75 -62c-32 0 -58 13 -77 34c-32 -19 -73 -34 -121 -34c-106 0 -178 62 -178 151c0 96 83 169 195 169c41 0 74 10 76 15
c-2 22 -29 35 -62 35c-77 0 -77 -57 -126 -57c-47 0 -78 39 -62 84c15 42 83 103 188 103c118 0 189 -66 189 -177v-4c1 -89 1 -157 1 -195zM203 127c44 0 78 28 94 45v31c-22 -6 -47 -9 -77 -9c-42 0 -68 -18 -68 -43c0 -15 14 -24 51 -24z" />
    <glyph glyph-name="acircumflex" unicode="&#xe2;" 
d="M179 598c-25 -20 -62 -23 -89 6c-21 25 -20 63 5 87l111 99c24 20 59 20 83 1l111 -100c25 -24 27 -61 3 -89c-23 -25 -62 -27 -87 -4l-69 62zM424 125c32 -7 52 -31 52 -63c0 -39 -29 -62 -75 -62c-32 0 -58 13 -77 34c-32 -19 -73 -34 -121 -34
c-106 0 -178 62 -178 151c0 96 83 169 195 169c41 0 74 10 76 15c-2 22 -29 35 -62 35c-77 0 -77 -57 -126 -57c-47 0 -78 39 -62 84c15 42 83 103 188 103c118 0 189 -66 189 -177v-4c0 -89 1 -157 1 -194zM203 127c44 0 78 28 94 45v31c-22 -6 -47 -9 -77 -9
c-42 0 -68 -18 -68 -43c0 -15 14 -24 51 -24z" />
    <glyph glyph-name="adieresis" unicode="&#xe4;" 
d="M185 584c-32 0 -58 26 -58 58v12c0 32 26 58 58 58s57 -26 57 -58v-12c0 -32 -25 -58 -57 -58zM318 584c-32 0 -58 26 -58 58v12c0 32 26 58 58 58s58 -26 58 -58v-12c0 -32 -25 -58 -58 -58zM424 125c32 -7 52 -31 52 -63c0 -39 -29 -62 -75 -62c-32 0 -58 13 -77 34
c-32 -19 -73 -34 -121 -34c-106 0 -178 62 -178 151c0 96 83 169 195 169c41 0 74 10 76 15c-2 22 -29 35 -62 35c-77 0 -77 -57 -126 -57c-47 0 -78 39 -62 84c15 42 83 103 188 103c118 0 189 -66 189 -177v-4c0 -89 1 -157 1 -194zM203 127c44 0 78 28 94 45v31
c-22 -6 -47 -9 -77 -9c-42 0 -68 -18 -68 -43c0 -15 14 -24 51 -24z" />
    <glyph glyph-name="agrave" unicode="&#xe0;" 
d="M80 662c-26 21 -28 60 -5 85c21 24 58 27 83 6l84 -70c26 -23 28 -62 5 -87c-22 -25 -59 -26 -84 -6zM424 125c32 -7 52 -31 52 -63c0 -39 -29 -62 -75 -62c-32 0 -58 13 -77 34c-32 -19 -73 -34 -121 -34c-106 0 -178 62 -178 151c0 96 83 169 195 169c41 0 74 10 76 15
c-2 22 -29 35 -62 35c-77 0 -77 -57 -126 -57c-47 0 -78 39 -62 84c15 42 83 103 188 103c118 0 189 -66 189 -177v-4c0 -89 1 -157 1 -194zM203 127c44 0 78 28 94 45v31c-22 -6 -47 -9 -77 -9c-42 0 -68 -18 -68 -43c0 -15 14 -24 51 -24z" />
    <glyph glyph-name="amacron" unicode="&#x101;" 
d="M188 558c-31 0 -57 25 -57 55c0 29 26 55 57 55h111c30 0 55 -25 55 -55c0 -32 -25 -55 -55 -55h-111zM424 124c32 -7 52 -30 52 -62c0 -39 -29 -62 -75 -62c-32 0 -58 13 -77 34c-32 -19 -73 -34 -121 -34c-106 0 -178 62 -178 151c0 96 83 169 195 169
c41 0 74 10 76 15c-2 22 -29 35 -62 35c-77 0 -77 -57 -126 -57c-47 0 -78 39 -62 84c15 42 83 103 188 103c118 0 189 -66 189 -177v-4c1 -89 1 -157 1 -195zM203 127c44 0 78 28 94 45v31c-22 -6 -47 -9 -77 -9c-42 0 -68 -18 -68 -43c0 -15 14 -24 51 -24z" />
    <glyph glyph-name="aring" unicode="&#xe5;" 
d="M424 124c32 -7 52 -30 52 -62c0 -39 -29 -62 -75 -62c-32 0 -58 13 -77 34c-32 -19 -73 -34 -121 -34c-106 0 -178 62 -178 151c0 96 83 169 195 169c41 0 74 10 76 15c-2 22 -29 35 -62 35c-77 0 -77 -57 -126 -57c-47 0 -78 39 -62 84c8 23 33 53 72 74
c-18 26 -28 57 -28 90c0 88 71 159 158 159s159 -72 159 -159c0 -40 -15 -76 -39 -104c36 -30 55 -76 55 -134v-4c1 -89 1 -157 1 -195zM248 586c-14 0 -24 -12 -24 -25c0 -12 12 -24 24 -24c13 0 25 10 25 24c0 13 -12 25 -25 25zM203 127c44 0 78 28 94 45v31
c-22 -6 -47 -9 -77 -9c-42 0 -68 -18 -68 -43c0 -15 14 -24 51 -24z" />
    <glyph glyph-name="atilde" unicode="&#xe3;" 
d="M72 552c-84 32 22 188 123 188c81 0 86 -61 125 -61c45 0 51 79 121 40c74 -41 -26 -178 -121 -178c-81 0 -92 62 -125 62c-29 0 -47 -80 -123 -51zM424 124c32 -7 52 -30 52 -62c0 -39 -29 -62 -75 -62c-32 0 -58 13 -77 34c-32 -19 -73 -34 -121 -34
c-106 0 -178 62 -178 151c0 96 83 169 195 169c41 0 74 10 76 15c-2 22 -29 35 -62 35c-77 0 -77 -57 -126 -57c-47 0 -78 39 -62 84c15 42 83 103 188 103c118 0 189 -66 189 -177v-4c1 -89 1 -157 1 -195zM203 127c44 0 78 28 94 45v31c-22 -6 -47 -9 -77 -9
c-42 0 -68 -18 -68 -43c0 -15 14 -24 51 -24z" />
    <glyph glyph-name="ae" unicode="&#xe6;" horiz-adv-x="755" 
d="M712 220c-12 -12 -28 -18 -44 -18h-246c12 -50 44 -77 89 -77c31 0 73 18 85 36c19 29 58 35 86 16h-1c29 -19 37 -58 18 -86c-36 -53 -114 -91 -188 -91c-59 0 -110 22 -148 60c-36 -29 -91 -60 -160 -60c-106 0 -178 62 -178 151c0 96 83 169 195 169c41 0 74 10 76 15
c-2 22 -29 35 -62 35c-77 0 -77 -57 -126 -57c-47 0 -78 39 -62 84c15 42 83 103 188 103c62 0 111 -18 143 -51c37 32 83 51 134 51c122 0 219 -104 219 -236c0 -17 -7 -33 -18 -44zM435 326h156c-17 31 -46 49 -80 49c-30 0 -58 -18 -76 -49zM203 127c48 0 83 33 97 48
c-2 9 -3 18 -5 27c-21 -5 -46 -8 -75 -8c-42 0 -68 -18 -68 -43c0 -15 14 -24 51 -24z" />
    <glyph glyph-name="b" unicode="b" horiz-adv-x="485" 
d="M246 538c125 0 214 -113 214 -268c0 -156 -89 -270 -214 -270c-38 0 -72 9 -102 26c-12 -16 -31 -26 -54 -26c-38 0 -65 28 -65 69v542c0 39 28 68 65 68c38 0 68 -29 68 -68v-89c26 10 55 16 88 16zM246 133c53 0 81 48 81 137c0 88 -28 135 -81 135
c-61 0 -88 -40 -88 -135c0 -91 28 -137 88 -137z" />
    <glyph glyph-name="c" unicode="c" horiz-adv-x="472" 
d="M246 -13c99 0 179 70 199 171c17 86 -104 115 -127 29c-4 -15 -12 -71 -72 -71c-49 0 -92 62 -92 138c0 69 44 130 92 130c43 0 67 -46 67 -46c49 -76 158 -14 115 57c-8 13 -59 118 -182 118c-122 0 -221 -119 -221 -259c0 -148 99 -267 221 -267z" />
    <glyph glyph-name="d" unicode="d" horiz-adv-x="485" 
d="M395 679c37 0 65 -29 65 -68v-542c0 -41 -27 -69 -65 -69c-23 0 -42 10 -54 26c-30 -17 -64 -26 -102 -26c-125 0 -214 114 -214 270c0 155 89 268 214 268c33 0 62 -6 88 -16v89c0 39 30 68 68 68zM239 133c60 0 88 46 88 137c0 95 -27 135 -88 135
c-53 0 -81 -47 -81 -135c0 -89 28 -137 81 -137z" />
    <glyph glyph-name="e" unicode="e" horiz-adv-x="511" 
d="M256 -11c71 0 153 39 194 94c52 69 -46 147 -103 79c-22 -26 -57 -41 -91 -41c-45 0 -81 30 -95 79h259c38 0 66 28 66 65c0 136 -103 246 -230 246c-128 0 -231 -118 -231 -261c0 -152 96 -261 231 -261zM177 330c19 29 49 49 79 49c32 0 61 -18 79 -49h-158z" />
    <glyph glyph-name="eacute" unicode="&#xe9;" horiz-adv-x="511" 
d="M292 555l91 79c26 22 29 64 5 92c-22 26 -65 30 -92 7l-88 -77c-27 -24 -33 -65 -7 -93c25 -27 58 -28 91 -8zM256 -11c71 0 153 39 194 94c52 69 -46 147 -103 79c-22 -26 -57 -41 -91 -41c-45 0 -81 30 -95 79h259c38 0 66 28 66 65c0 136 -103 246 -230 246
c-128 0 -231 -118 -231 -261c0 -152 96 -261 231 -261zM177 330c19 29 49 49 79 49c32 0 61 -18 79 -49h-158z" />
    <glyph glyph-name="ecircumflex" unicode="&#xea;" horiz-adv-x="511" 
d="M374 565c19 0 38 9 50 23c24 28 22 69 -5 94l-119 107c-24 22 -63 23 -89 0l-119 -107c-27 -25 -29 -66 -5 -94s69 -30 96 -5l73 66l72 -65c11 -12 29 -19 46 -19zM256 -11c71 0 153 39 194 94c52 69 -46 147 -103 79c-22 -26 -57 -41 -91 -41c-45 0 -81 30 -95 79h259
c38 0 66 28 66 65c0 136 -103 246 -230 246c-128 0 -231 -118 -231 -261c0 -152 96 -261 231 -261zM177 330c19 29 49 49 79 49c32 0 61 -18 79 -49h-158z" />
    <glyph glyph-name="edieresis" unicode="&#xeb;" horiz-adv-x="511" 
d="M185 557c36 0 65 30 65 67v14c0 37 -28 66 -65 66s-67 -30 -67 -66v-14c0 -37 30 -67 67 -67zM335 557c37 0 67 30 67 67v14c0 36 -30 66 -67 66s-65 -29 -65 -66v-14c0 -37 29 -67 65 -67zM256 -11c71 0 153 39 194 94c52 69 -46 147 -103 79c-22 -26 -57 -41 -91 -41
c-45 0 -81 30 -95 79h259c38 0 66 28 66 65c0 136 -103 246 -230 246c-128 0 -231 -118 -231 -261c0 -152 96 -261 231 -261zM177 330c19 29 49 49 79 49c32 0 61 -18 79 -49h-158z" />
    <glyph glyph-name="egrave" unicode="&#xe8;" horiz-adv-x="511" 
d="M331 580c23 25 21 68 -8 93l-91 79c-29 24 -71 20 -95 -9c-22 -24 -21 -67 7 -93l91 -78c26 -24 71 -20 96 8zM256 -11c71 0 153 39 194 94c52 69 -46 147 -103 79c-22 -26 -57 -41 -91 -41c-45 0 -81 30 -95 79h259c38 0 66 28 66 65c0 136 -103 246 -230 246
c-128 0 -231 -118 -231 -261c0 -152 96 -261 231 -261zM177 330c19 29 49 49 79 49c32 0 61 -18 79 -49h-158z" />
    <glyph glyph-name="emacron" unicode="&#x113;" horiz-adv-x="511" 
d="M201 541h116c33 0 58 25 58 57s-26 58 -58 58h-116c-32 0 -59 -27 -59 -58s27 -57 59 -57zM256 -11c71 0 153 39 194 94c52 69 -46 147 -103 79c-22 -26 -57 -41 -91 -41c-45 0 -81 30 -95 79h259c38 0 66 28 66 65c0 136 -103 246 -230 246c-128 0 -231 -118 -231 -261
c0 -152 96 -261 231 -261zM177 330c19 29 49 49 79 49c32 0 61 -18 79 -49h-158z" />
    <glyph glyph-name="f" unicode="f" horiz-adv-x="320" 
d="M226 524c40 0 69 -28 69 -66c0 -37 -30 -66 -69 -66h-1v-323c0 -39 -28 -69 -65 -69s-66 30 -66 69v323h-1c-39 0 -68 29 -68 66s29 66 68 66h1v34c0 71 43 120 109 120c51 0 84 -27 84 -70c0 -35 -26 -60 -62 -61v-23h1z" />
    <glyph glyph-name="g" unicode="g" horiz-adv-x="495" 
d="M405 499c36 0 65 -30 65 -69v-376c0 -61 -19 -134 -51 -177c-40 -49 -101 -77 -167 -77c-106 0 -166 81 -171 90c-17 35 -11 72 18 90c28 18 65 8 89 -21c0 0 23 -28 64 -28c30 0 56 23 72 56c-23 -9 -47 -14 -72 -14c-124 0 -227 121 -227 264c0 150 101 272 227 272
c38 0 73 -11 105 -31c11 13 28 21 48 21zM252 104c56 0 87 45 87 133c0 95 -30 141 -87 141c-52 0 -96 -63 -96 -141c0 -71 45 -133 96 -133z" />
    <glyph glyph-name="h" unicode="h" horiz-adv-x="447" 
d="M383 428c25 -41 39 -100 39 -170v-192c0 -37 -29 -66 -64 -66c-37 0 -66 29 -66 66v192c0 70 -15 128 -68 128c-56 0 -69 -44 -69 -125v-195c0 -37 -28 -66 -64 -66c-37 0 -66 28 -66 66v522c0 37 30 66 66 66s64 -29 64 -66v-83c20 7 43 11 69 11c68 0 124 -31 159 -88z
" />
    <glyph glyph-name="i" unicode="i" horiz-adv-x="186" 
d="M93 548c40 0 68 29 68 68v16c0 40 -27 68 -68 68c-40 0 -68 -29 -68 -68v-16c0 -38 29 -68 68 -68zM93 0c39 0 68 30 68 70v376c0 39 -29 70 -68 70s-68 -31 -68 -70v-376c0 -40 29 -70 68 -70z" />
    <glyph glyph-name="iacute" unicode="&#xed;" horiz-adv-x="266" 
d="M89 537c16 0 32 6 43 17l-1 -2l86 75c28 23 32 64 8 90h1c-23 27 -63 31 -92 8l-87 -76c-26 -22 -29 -63 -7 -90l1 -1c12 -13 30 -21 48 -21zM96 0c35 0 64 29 64 64v375c0 35 -29 65 -64 65c-36 0 -65 -29 -65 -65v-375c0 -35 29 -64 65 -64z" />
    <glyph glyph-name="icircumflex" unicode="&#xee;" horiz-adv-x="401" 
d="M360 563c23 27 21 66 -5 89l-112 102c-26 20 -59 20 -85 -1l-112 -101c-26 -23 -28 -62 -6 -89c22 -28 64 -31 90 -6l71 63l70 -64c29 -24 72 -17 89 7zM201 0c35 0 63 29 63 63v372c0 35 -28 65 -63 65c-36 0 -64 -29 -64 -65v-372c0 -34 28 -63 64 -63z" />
    <glyph glyph-name="idieresis" unicode="&#xef;" horiz-adv-x="323" 
d="M90 540c34 0 62 29 62 66v13c0 35 -28 64 -62 64c-36 0 -65 -29 -65 -64v-13c0 -37 28 -66 65 -66zM234 540c36 0 64 30 64 66v13c0 35 -28 64 -64 64c-34 0 -63 -29 -63 -64v-13c0 -37 28 -66 63 -66zM162 0c36 0 63 28 63 63v373c0 35 -28 64 -63 64s-64 -29 -64 -64
v-373c0 -35 28 -63 64 -63z" />
    <glyph glyph-name="igrave" unicode="&#xec;" horiz-adv-x="264" 
d="M176 532c17 0 36 9 46 23l1 1c22 25 20 66 -5 89l-88 75c-28 23 -68 19 -89 -9l1 1c-24 -27 -22 -67 5 -90l87 -74l-1 2c11 -11 27 -18 43 -18zM176 0c36 0 63 28 63 63v372c0 36 -28 65 -63 65c-36 0 -65 -29 -65 -65v-372c0 -34 29 -63 65 -63z" />
    <glyph glyph-name="imacron" unicode="&#x12b;" horiz-adv-x="273" 
d="M80 525h114c31 0 54 24 54 55s-24 56 -54 56h-114c-30 0 -55 -26 -55 -56s25 -55 55 -55zM136 0c36 0 64 28 64 64v373c0 35 -28 63 -64 63s-63 -28 -63 -63v-373c0 -36 28 -64 63 -64z" />
    <glyph glyph-name="j" unicode="j" horiz-adv-x="221" 
d="M131 677c40 0 65 -26 65 -66v-14c0 -38 -26 -66 -65 -66c-36 0 -65 29 -65 66v14c0 39 28 66 65 66zM131 500c38 0 65 -29 65 -67v-453c0 -67 -38 -104 -106 -104c-37 0 -65 30 -65 66c0 28 17 51 41 60v431c0 38 29 67 65 67z" />
    <glyph glyph-name="k" unicode="k" horiz-adv-x="467" 
d="M428 101c23 -27 16 -68 -13 -89c-26 -20 -71 -14 -91 15l-144 198c-10 -8 -18 -15 -24 -21v-139c0 -36 -28 -65 -64 -65s-67 28 -67 65v523c0 37 31 65 67 65s64 -29 64 -65v-211l10 9l120 99c28 23 68 23 93 -9c22 -29 18 -68 -10 -91c-32 -26 -62 -51 -90 -75z" />
    <glyph glyph-name="l" unicode="l" horiz-adv-x="180" 
d="M89 0c37 0 66 29 66 66v568c0 37 -29 66 -66 66c-36 0 -64 -29 -64 -66v-568c0 -37 28 -66 64 -66z" />
    <glyph glyph-name="m" unicode="m" horiz-adv-x="656" 
d="M451 510c102 0 180 -70 180 -163v-278c0 -38 -27 -68 -63 -68c-37 0 -64 29 -64 68v278c0 23 -19 37 -53 37c-29 0 -61 -25 -61 -45v-270c0 -38 -26 -68 -62 -68s-63 30 -63 68v270v5v3c0 21 -24 37 -60 37c-22 0 -53 -26 -53 -45v-270c0 -39 -27 -68 -63 -68
s-64 30 -64 68v363c0 38 28 68 64 68c13 0 25 -4 35 -11c25 13 53 21 81 21c51 0 95 -15 128 -42c33 26 74 42 118 42z" />
    <glyph glyph-name="n" unicode="n" horiz-adv-x="441" 
d="M415 345c1 -3 1 -7 1 -10v-267c0 -38 -27 -68 -63 -68c-35 0 -63 30 -63 68v261c0 25 -36 55 -70 55c-32 0 -69 -31 -69 -55v-261c0 -38 -27 -68 -63 -68c-35 0 -63 30 -63 68v365c0 38 28 68 63 68c15 0 28 -5 39 -14c28 15 60 24 93 24c98 0 186 -77 195 -166z" />
    <glyph glyph-name="nacute" unicode="&#x144;" horiz-adv-x="441" 
d="M227 535c-19 0 -36 8 -49 24c-23 27 -20 69 8 91l88 76c28 23 67 19 90 -8c26 -28 22 -69 -6 -91l-90 -77c-11 -9 -28 -15 -41 -15zM220 516c104 0 196 -86 196 -182v-266c0 -38 -26 -68 -63 -68c-36 0 -64 30 -64 68v266c0 25 -35 55 -69 55c-32 0 -68 -31 -68 -55v-266
c0 -38 -27 -68 -63 -68c-37 0 -64 30 -64 68v364c0 38 27 69 64 69c13 0 25 -4 35 -11c28 17 61 26 96 26z" />
    <glyph glyph-name="ntilde" unicode="&#xf1;" horiz-adv-x="449" 
d="M392 726c28 -15 39 -46 27 -76c-25 -62 -74 -99 -134 -99c-79 0 -82 57 -108 57c-34 0 -61 -76 -114 -44c-31 20 -39 53 -19 87c30 53 80 85 133 85c71 0 78 -55 108 -55c38 0 54 73 107 45zM220 516c103 0 196 -86 196 -182v-266c0 -38 -27 -68 -63 -68s-63 30 -63 68
v266c0 25 -36 55 -70 55c-32 0 -69 -31 -69 -55v-266c0 -38 -27 -68 -63 -68c-35 0 -63 30 -63 68v365c0 37 28 67 63 67c13 0 25 -4 34 -10c30 16 63 26 98 26z" />
    <glyph glyph-name="o" unicode="o" horiz-adv-x="513" 
d="M261 -13c124 0 227 122 227 265s-104 265 -227 265c-130 0 -236 -120 -236 -265c0 -146 106 -265 236 -265zM261 385c53 0 95 -57 95 -133c0 -73 -45 -134 -95 -134c-58 0 -104 59 -104 134c0 78 44 133 104 133z" />
    <glyph glyph-name="oacute" unicode="&#xf3;" horiz-adv-x="514" 
d="M210 542c14 0 32 7 42 16l88 76c28 22 32 64 9 91c-24 28 -65 32 -93 7l1 1l-89 -76l-1 -1c-27 -23 -31 -63 -7 -91h1c13 -14 31 -23 49 -23zM257 -11c128 0 232 119 232 263c0 145 -104 263 -232 263s-232 -118 -232 -263c0 -144 104 -263 232 -263zM257 385
c56 0 103 -60 103 -133c0 -72 -47 -133 -103 -133c-55 0 -102 60 -102 133c0 74 47 133 102 133z" />
    <glyph glyph-name="ocircumflex" unicode="&#xf4;" horiz-adv-x="514" 
d="M186 566l71 63l72 -64c30 -27 72 -20 91 3c25 26 23 68 -3 93l-116 103c-26 23 -63 23 -87 0l-116 -103c-26 -23 -29 -65 -4 -92c26 -29 71 -26 92 -3zM257 -12c129 0 232 118 232 263c0 144 -104 263 -232 263s-232 -120 -232 -263c0 -145 104 -263 232 -263zM257 384
c56 0 103 -60 103 -133c0 -74 -47 -133 -103 -133s-102 59 -102 133c0 73 47 133 102 133z" />
    <glyph glyph-name="odieresis" unicode="&#xf6;" horiz-adv-x="514" 
d="M181 545c36 0 65 30 65 66v15c0 36 -29 64 -65 64s-65 -28 -65 -64v-15c0 -37 28 -66 65 -66zM330 545c36 0 64 30 64 66v15c0 36 -28 64 -64 64s-66 -28 -66 -64v-15c0 -37 29 -66 66 -66zM257 -14c128 0 232 119 232 264c0 144 -104 261 -232 261s-232 -117 -232 -261
c0 -145 104 -264 232 -264zM257 382c54 0 101 -59 101 -132c0 -74 -46 -134 -101 -134s-101 60 -101 134c0 73 47 132 101 132z" />
    <glyph glyph-name="ograve" unicode="&#xf2;" horiz-adv-x="510" 
d="M300 563c22 27 19 66 -6 90l-91 76c-25 25 -66 21 -90 -7c-22 -27 -20 -68 6 -91l89 -76c27 -22 70 -19 92 8zM255 -11c128 0 230 118 230 262s-102 262 -230 262s-230 -118 -230 -262s102 -262 230 -262zM255 383c55 0 101 -59 101 -132s-46 -133 -101 -133
s-101 60 -101 133s46 132 101 132z" />
    <glyph glyph-name="omacron" unicode="&#x14d;" horiz-adv-x="520" 
d="M202 533h116c31 0 56 25 56 56s-26 57 -56 57h-116c-30 0 -57 -27 -57 -57s27 -56 57 -56zM260 -16c131 0 235 120 235 267s-104 268 -235 268s-235 -121 -235 -268s104 -267 235 -267zM260 387c57 0 104 -62 104 -136s-47 -134 -104 -134c-56 0 -103 60 -103 134
c0 75 47 136 103 136z" />
    <glyph glyph-name="oslash" unicode="&#xf8;" horiz-adv-x="550" 
d="M510 451c23 -28 19 -69 -8 -91l-14 -12c11 -30 17 -63 17 -98c0 -144 -102 -261 -230 -261c-53 0 -102 20 -141 54l-2 -2c-23 -21 -65 -21 -92 8c-23 27 -19 67 7 91l15 12c-11 31 -17 64 -17 98c0 144 102 261 230 261c54 0 103 -21 142 -55l1 1c27 25 68 21 92 -6z
M174 250v-1l142 121c-12 8 -26 12 -41 12c-54 0 -101 -59 -101 -132zM377 250v2l-142 -123c12 -7 26 -11 40 -11c55 0 102 60 102 132z" />
    <glyph glyph-name="otilde" unicode="&#xf5;" horiz-adv-x="514" 
d="M315 553c60 0 110 37 135 100c11 30 1 62 -27 77c-54 27 -73 -46 -108 -46c-31 0 -33 56 -109 56c-53 0 -104 -33 -134 -86c-20 -35 -13 -69 18 -88c54 -33 93 43 116 43c26 0 36 -56 109 -56zM257 -15c129 0 232 119 232 265c0 144 -103 263 -232 263
s-232 -119 -232 -263c0 -146 103 -265 232 -265zM257 383c55 0 102 -60 102 -133c0 -75 -47 -134 -102 -134s-102 59 -102 134c0 73 47 133 102 133z" />
    <glyph glyph-name="oe" unicode="&#x153;" horiz-adv-x="840" 
d="M815 262c0 -35 -30 -64 -65 -64h-257c12 -53 45 -82 93 -82c33 0 76 19 89 38c19 29 58 37 89 18c31 -21 38 -61 18 -90c-38 -56 -118 -95 -196 -95c-69 0 -128 28 -168 77c-42 -46 -100 -75 -162 -75c-128 0 -231 118 -231 262c0 145 104 262 231 262
c65 0 124 -31 167 -80c41 47 99 76 163 76c127 0 228 -108 229 -247zM256 119c52 0 94 50 100 115v13v17c-5 68 -48 120 -100 120c-56 0 -102 -60 -102 -133s46 -132 102 -132zM506 327h163c-17 32 -47 53 -83 53c-34 0 -62 -20 -80 -53z" />
    <glyph glyph-name="p" unicode="p" horiz-adv-x="493" 
d="M243 518c125 0 225 -119 225 -264c0 -143 -94 -254 -217 -254c-35 0 -66 6 -94 18v-64c0 -39 -29 -69 -66 -69s-66 30 -66 69v480c0 38 29 68 66 68c16 0 31 -6 42 -15c32 20 69 31 110 31zM251 131c45 0 85 56 85 123c0 73 -42 132 -93 132c-52 0 -86 -51 -86 -132
s32 -123 94 -123z" />
    <glyph glyph-name="q" unicode="q" horiz-adv-x="498" 
d="M406 500c36 0 67 -31 67 -70v-476c0 -38 -31 -69 -67 -69c-37 0 -65 31 -65 69v63c-26 -11 -55 -17 -87 -17c-131 0 -229 110 -229 255c0 146 99 259 229 259c41 0 78 -11 110 -30c11 10 26 16 42 16zM254 132c56 0 87 40 87 125c0 75 -36 124 -87 124s-97 -57 -97 -126
c0 -73 40 -123 97 -123z" />
    <glyph glyph-name="r" unicode="r" horiz-adv-x="307" 
d="M206 492c47 0 76 -23 76 -64c0 -38 -27 -65 -65 -65c-28 0 -63 -32 -63 -55v-240c0 -39 -27 -68 -64 -68s-65 29 -65 68v364c0 39 28 68 65 68c21 0 38 -9 50 -24c21 10 44 16 66 16z" />
    <glyph glyph-name="s" unicode="s" horiz-adv-x="419" 
d="M214 0c101 0 180 71 180 159c0 119 -113 144 -182 158c-59 14 -63 19 -63 31c0 15 21 27 49 27c20 0 36 -9 57 -32c58 -60 145 17 94 83c-36 46 -96 74 -156 74c-91 0 -166 -72 -166 -159c0 -74 51 -121 162 -145c67 -12 83 -22 83 -37c0 -19 -25 -37 -58 -37
c-45 0 -61 26 -73 42c-55 74 -153 3 -102 -72c44 -62 100 -92 175 -92z" />
    <glyph glyph-name="t" unicode="t" horiz-adv-x="310" 
d="M219 128c30 -7 52 -32 52 -63c0 -37 -30 -65 -69 -65h-16c-60 0 -95 38 -95 104v276h-1c-36 0 -65 29 -65 64c0 36 29 65 65 65h1v21c0 35 29 65 64 65s64 -29 64 -65v-21h1c37 0 65 -28 65 -65c0 -36 -28 -64 -65 -64h-1v-252z" />
    <glyph glyph-name="u" unicode="u" horiz-adv-x="437" 
d="M348 500c36 0 64 -28 64 -67v-371c0 -34 -31 -63 -65 -63c-13 0 -24 3 -34 9c-29 -15 -63 -24 -99 -24c-105 0 -189 82 -189 182v267c0 38 29 67 65 67c35 0 63 -28 63 -67v-267c0 -27 30 -54 61 -54c35 0 70 26 70 54v267c0 38 28 67 64 67z" />
    <glyph glyph-name="uacute" unicode="&#xfa;" horiz-adv-x="443" 
d="M275 552c-30 -23 -67 -21 -93 7c-23 28 -19 69 9 92l87 76c28 23 69 20 93 -8c23 -28 19 -69 -9 -92zM353 500c35 0 65 -29 65 -64v-372c0 -35 -30 -64 -65 -64c-13 0 -26 4 -36 11c-30 -17 -63 -26 -99 -26c-108 0 -193 86 -193 192v259c0 35 30 64 65 64
c36 0 65 -29 65 -64v-259c0 -34 26 -62 63 -62s70 30 70 62v259c0 35 29 64 65 64z" />
    <glyph glyph-name="ucircumflex" unicode="&#xfb;" horiz-adv-x="442" 
d="M148 559c-29 -23 -69 -18 -91 6c-24 27 -22 69 5 91l115 106c26 21 63 20 88 0l113 -105c28 -22 31 -64 7 -91c-24 -26 -59 -32 -92 -7l-72 66zM354 500c35 0 63 -28 63 -63v-374c0 -35 -28 -64 -63 -64c-14 0 -26 4 -37 11c-29 -17 -64 -27 -100 -27
c-109 0 -192 86 -192 194v260c0 35 28 64 63 64c37 0 66 -29 66 -64v-260c0 -35 28 -64 63 -64c37 0 70 30 70 64v260c0 35 30 63 67 63z" />
    <glyph glyph-name="udieresis" unicode="&#xfc;" horiz-adv-x="442" 
d="M147 545c-36 0 -66 29 -66 65v15c0 36 30 65 66 65c35 0 64 -29 64 -65v-15c0 -36 -29 -65 -64 -65zM296 545c-36 0 -65 29 -65 65v15c0 36 29 65 65 65s65 -29 65 -65v-15c0 -36 -29 -65 -65 -65zM353 501c35 0 64 -28 64 -64v-372c0 -35 -29 -66 -64 -66
c-14 0 -26 4 -37 12c-29 -16 -63 -26 -99 -26c-108 0 -192 85 -192 192v260c0 36 29 64 64 64c37 0 66 -27 66 -64v-260c0 -33 27 -62 62 -62c38 0 71 30 71 62v260c0 36 29 64 65 64z" />
    <glyph glyph-name="ugrave" unicode="&#xf9;" horiz-adv-x="442" 
d="M103 627c-29 27 -29 65 -7 91c23 28 64 32 91 8l89 -76c27 -23 30 -64 7 -91c-23 -28 -65 -30 -93 -7zM353 500c35 0 64 -29 64 -64v-371c0 -36 -29 -66 -64 -66c-13 0 -26 4 -36 11c-30 -16 -64 -26 -100 -26c-108 0 -192 85 -192 192v260c0 35 29 65 64 65
c37 0 66 -29 66 -65v-260c0 -34 27 -62 62 -62c37 0 71 29 71 62v260c0 35 29 64 65 64z" />
    <glyph glyph-name="umacron" unicode="&#x16b;" horiz-adv-x="446" 
d="M166 532c-31 0 -58 26 -58 57c0 30 27 56 58 56h114c31 0 57 -25 57 -56c0 -32 -25 -57 -57 -57h-114zM357 507c36 0 64 -30 64 -65v-376c0 -37 -28 -66 -64 -66c-14 0 -27 4 -38 11c-29 -16 -64 -26 -100 -26c-110 0 -194 86 -194 194v263c0 35 28 66 64 66
c38 0 67 -30 67 -66v-263c0 -34 27 -63 63 -63c37 0 72 30 72 63v263c0 35 29 65 66 65z" />
    <glyph glyph-name="v" unicode="v" horiz-adv-x="486" 
d="M243 234l-91 221c-16 39 -55 55 -89 38c-32 -16 -47 -54 -33 -87l155 -367c10 -23 33 -39 58 -39s47 16 57 39l155 371c15 34 0 71 -32 84c-33 14 -69 -4 -86 -40z" />
    <glyph glyph-name="w" unicode="w" horiz-adv-x="653" 
d="M586 497c33 -11 49 -50 40 -79l-119 -375c-16 -57 -101 -58 -119 0l-60 183l-55 -182c-15 -59 -98 -59 -118 -1l-127 374c-10 30 9 69 40 79c34 12 75 -7 85 -40l57 -180l55 180c8 29 37 47 65 45c26 -1 46 -16 56 -44l63 -187l59 186c10 32 45 50 78 41z" />
    <glyph glyph-name="x" unicode="x" horiz-adv-x="466" 
d="M315 250l112 -146c23 -28 17 -69 -11 -91c-29 -21 -67 -16 -90 11l-92 120l-92 -119c-27 -29 -63 -33 -91 -12c-29 22 -35 63 -12 92l113 145l-113 146c-23 28 -17 69 12 91c27 21 69 16 91 -13l91 -118l92 118c21 29 62 34 91 13c28 -22 34 -63 11 -92z" />
    <glyph glyph-name="y" unicode="y" horiz-adv-x="440" 
d="M373 496c34 -11 51 -49 38 -84l-184 -484c-17 -46 -50 -67 -102 -67c-36 0 -65 29 -65 65c0 32 23 57 55 65l22 59l-109 366c-11 35 9 72 44 81c34 10 68 -7 80 -42l60 -201l77 206c13 28 45 48 84 36z" />
    <glyph glyph-name="ydieresis" unicode="&#xff;" horiz-adv-x="446" 
d="M157 526c-33 0 -58 25 -58 57v13c0 32 25 57 58 57s59 -26 59 -57v-13c0 -31 -26 -57 -59 -57zM292 526c-32 0 -57 25 -57 57v13c0 32 25 57 57 57s59 -26 59 -57v-13c0 -31 -27 -57 -59 -57zM378 499c34 -11 52 -49 39 -84l-186 -492c-18 -47 -52 -68 -104 -68
c-36 0 -67 29 -67 65c0 34 24 59 56 66l22 60l-110 372c-11 36 9 73 46 82h-1c34 11 68 -7 81 -42l62 -204l77 208c15 33 49 49 84 38z" />
    <glyph glyph-name="z" unicode="z" horiz-adv-x="442" 
d="M353 0c36 0 64 28 64 64s-28 65 -64 65h-140l186 269c28 43 1 102 -53 102h-242c-36 0 -63 -27 -65 -64c0 -34 27 -63 61 -66h124l-187 -268c-31 -47 4 -102 54 -102h262z" />
    <glyph glyph-name="zero" unicode="0" horiz-adv-x="628" 
d="M314 -10c160 0 289 162 289 360s-129 361 -289 361s-289 -163 -289 -361s129 -360 289 -360zM314 572c81 0 150 -100 150 -222c0 -121 -69 -221 -150 -221s-150 100 -150 221c0 122 69 222 150 222z" />
    <glyph glyph-name="one" unicode="1" horiz-adv-x="295" 
d="M202 700c38 0 68 -30 68 -67v-566c0 -37 -30 -67 -68 -67s-67 29 -67 67v405c-24 -20 -62 -20 -87 2c-25 20 -32 64 -7 94l93 110c14 14 32 22 50 22h18z" />
    <glyph glyph-name="two" unicode="2" horiz-adv-x="556" 
d="M463 0c38 0 68 30 68 68c0 37 -30 67 -68 67h-288c10 53 43 86 115 121c145 70 200 130 200 228c0 124 -104 218 -240 218c-119 0 -212 -87 -225 -208c-2 -42 30 -71 61 -74c40 -5 71 28 75 60c0 0 3 23 17 46c15 28 37 40 72 40c62 0 103 -34 103 -82
c0 -34 -24 -58 -122 -105c-196 -95 -196 -228 -196 -311c0 -38 30 -68 68 -68h360z" />
    <glyph glyph-name="three" unicode="3" horiz-adv-x="568" 
d="M287 0c148 0 256 102 256 242c0 94 -51 175 -133 217c39 45 66 92 66 121v52c0 38 -30 68 -68 68h-297c-37 0 -68 -30 -68 -68s31 -68 68 -68h210c-24 -31 -64 -73 -118 -100c-54 -22 -72 -59 -53 -101c18 -32 55 -46 89 -32c28 11 35 19 68 19c53 0 100 -50 100 -108
c0 -64 -47 -106 -120 -106c-65 0 -110 36 -129 101v1c-11 35 -47 56 -83 47h-1c-35 -11 -56 -48 -47 -84c12 -43 71 -201 260 -201z" />
    <glyph glyph-name="four" unicode="4" horiz-adv-x="604" 
d="M412 0c38 0 69 30 69 68v121h30c38 0 68 30 68 68c0 37 -30 67 -68 67h-30v308c0 30 -19 55 -46 64c-24 11 -55 3 -74 -19l-320 -377c-17 -19 -21 -47 -10 -71c13 -25 37 -40 62 -40h251v-121c0 -38 31 -68 68 -68zM239 324l105 123v-123h-105z" />
    <glyph glyph-name="five" unicode="5" horiz-adv-x="568" 
d="M282 528c151 0 261 -113 261 -265c0 -150 -109 -263 -253 -263c-122 0 -229 83 -263 202c-9 37 12 74 47 84c36 10 73 -11 84 -47c17 -60 71 -103 132 -103c68 0 117 53 117 127c0 78 -49 128 -125 128c-48 0 -68 -11 -88 -43c-12 -17 -35 -30 -57 -30h-12
c-18 0 -37 8 -50 22c-15 17 -21 37 -18 55l36 246c7 35 35 59 68 59h263c37 0 67 -30 67 -68s-30 -68 -67 -68h-204l-7 -46c22 7 45 10 69 10z" />
    <glyph glyph-name="six" unicode="6" horiz-adv-x="554" 
d="M283 494c145 0 246 -101 246 -247c0 -144 -102 -247 -246 -247c-111 0 -196 59 -231 151c0 1 -1 2 -1 3c-31 74 -35 282 -9 358c15 54 48 103 90 137c44 36 97 54 148 53c12 0 157 -2 207 -127c14 -33 -3 -71 -37 -86c-33 -12 -67 3 -84 35c-26 48 -82 47 -88 47
c-22 1 -42 -8 -63 -24c-25 -21 -41 -45 -48 -79c34 17 73 26 116 26zM283 131c69 0 115 47 115 116s-45 116 -115 116s-117 -48 -117 -118c0 -68 47 -114 117 -114z" />
    <glyph glyph-name="seven" unicode="7" horiz-adv-x="563" 
d="M237 0c37 0 66 29 68 66c1 197 86 402 208 514c22 19 31 50 20 76c-9 27 -34 44 -64 44h-377c-37 0 -67 -30 -67 -68s30 -67 67 -67h231c-98 -143 -152 -317 -154 -497c0 -38 30 -68 68 -68z" />
    <glyph glyph-name="eight" unicode="8" horiz-adv-x="537" 
d="M440 371c44 -39 72 -94 72 -154c0 -120 -109 -217 -244 -217s-243 97 -243 217c0 60 28 115 72 154c-32 34 -52 79 -52 128c0 110 99 201 223 201s224 -90 224 -201c0 -49 -20 -94 -52 -128zM179 499c0 -35 41 -66 89 -66c49 0 90 31 90 66s-41 65 -90 65
c-48 0 -89 -30 -89 -65zM268 136c60 0 109 36 109 81c0 44 -49 82 -109 82c-59 0 -108 -38 -108 -82s49 -81 108 -81z" />
    <glyph glyph-name="nine" unicode="9" horiz-adv-x="533" 
d="M498 496c17 -90 9 -235 -1 -298c-21 -115 -114 -198 -224 -198c-103 0 -170 41 -214 132c-13 34 5 72 39 86c31 13 64 -1 86 -35c20 -34 45 -48 89 -48c40 0 84 43 95 96c1 4 1 8 2 12c-33 -17 -72 -27 -112 -27c-132 0 -233 105 -233 242s101 242 233 242
c122 0 222 -89 240 -204zM266 359c60 0 101 44 101 99c0 10 -1 20 -4 29c0 1 -1 1 -1 2v1l-3 8c-15 34 -48 58 -93 58c-56 0 -105 -41 -105 -98s49 -99 105 -99z" />
    <glyph glyph-name="asterisk" unicode="*" horiz-adv-x="345" 
d="M290 535c29 -15 39 -50 22 -78c-8 -17 -28 -29 -49 -29c-9 0 -18 1 -27 6l-5 3v-3c0 -32 -26 -58 -58 -58c-33 0 -58 26 -58 58v4l-5 -3c-8 -4 -18 -7 -28 -7c-20 0 -38 11 -49 29c-16 27 -6 63 21 78l4 3l-4 2c-27 16 -37 52 -21 78c16 29 54 36 79 22l3 -2v3
c0 33 26 58 58 58s58 -25 58 -58v-2l2 1c24 13 62 8 79 -22c17 -27 7 -62 -21 -78l-5 -3z" />
    <glyph glyph-name="backslash" unicode="\" horiz-adv-x="414" 
d="M349 -37c32 13 48 49 36 81l-238 620c-13 32 -48 48 -82 36c-32 -13 -48 -48 -36 -82l238 -618c13 -33 42 -47 82 -37z" />
    <glyph glyph-name="periodcentered" unicode="&#xb7;" horiz-adv-x="174" 
d="M25 315c0 -36 27 -64 62 -64c36 0 62 27 62 64s-26 64 -62 64c-35 0 -62 -28 -62 -64z" />
    <glyph glyph-name="bullet" unicode="&#x2022;" horiz-adv-x="249" 
d="M25 285c0 -59 41 -104 99 -104c62 0 100 45 100 104c0 62 -41 105 -99 105s-100 -43 -100 -105z" />
    <glyph glyph-name="colon" unicode=":" horiz-adv-x="182" 
d="M25 274c0 -39 28 -68 65 -68c39 0 67 29 67 68s-28 68 -66 68c-37 0 -66 -30 -66 -68zM25 68c0 -39 28 -68 65 -68c39 0 67 29 67 68s-28 68 -66 68c-37 0 -66 -30 -66 -68z" />
    <glyph glyph-name="comma" unicode="," horiz-adv-x="203" 
d="M131 -117c30 32 47 76 47 124c0 37 -10 76 -26 101c-20 29 -57 37 -86 18c-29 -20 -36 -60 -18 -86c13 -19 9 -54 -7 -73c-22 -26 -22 -64 2 -87c25 -25 65 -24 88 3z" />
    <glyph glyph-name="ellipsis" unicode="&#x2026;" horiz-adv-x="209" 
d="M117 136c38 0 67 -28 67 -68c0 -39 -29 -68 -68 -68c-37 0 -66 29 -66 68c0 38 30 68 67 68z" />
    <glyph glyph-name="exclam" unicode="!" horiz-adv-x="187" 
d="M93 164c38 0 69 30 69 68v400c0 38 -31 68 -69 68s-68 -30 -68 -68v-400c0 -38 30 -68 68 -68zM161 70c0 40 -28 70 -67 70c-40 0 -68 -29 -68 -70s28 -70 67 -70s68 30 68 70z" />
    <glyph glyph-name="exclamdown" unicode="&#xa1;" horiz-adv-x="179" 
d="M153 353c0 37 -28 66 -64 66s-63 -28 -63 -66s27 -65 64 -65c36 0 63 28 63 65zM89 265c-35 0 -64 -29 -64 -64v-374c0 -35 29 -64 64 -64s65 29 65 64v374c0 35 -30 64 -65 64z" />
    <glyph glyph-name="numbersign" unicode="#" horiz-adv-x="833" 
d="M740 382h-139l-20 -52h117c38 0 68 -30 68 -68s-30 -68 -68 -68h-169l-57 -151c-14 -35 -57 -52 -88 -39c-35 14 -53 52 -40 87l39 103h-81l-57 -151c-13 -35 -59 -53 -88 -39c-35 14 -53 52 -40 87l39 103h-63c-37 0 -68 30 -68 68s31 68 68 68h115l20 52h-92
c-39 0 -68 29 -68 68c0 38 30 68 68 68h144l53 138c14 35 52 53 89 40c35 -14 52 -53 38 -88l-34 -90h81l53 138c14 35 51 53 88 40c35 -14 53 -53 39 -88l-34 -90h87c37 0 68 -30 68 -68s-31 -68 -68 -68zM435 330l20 52h-81l-20 -52h81z" />
    <glyph glyph-name="period" unicode="." horiz-adv-x="184" 
d="M25 68c0 -39 29 -68 66 -68c39 0 68 29 68 68c0 40 -29 68 -67 68c-37 0 -67 -30 -67 -68z" />
    <glyph glyph-name="question" unicode="?" horiz-adv-x="495" 
d="M238 155c37 0 67 29 67 66v56c38 11 74 31 100 59c41 41 65 98 65 154c0 124 -99 218 -229 218c-66 0 -129 -28 -170 -77c-36 -42 -53 -97 -44 -147c6 -36 40 -59 76 -54c36 7 59 40 53 77c-7 33 43 69 85 69c58 0 97 -35 97 -86s-43 -91 -100 -91c-36 0 -66 -29 -66 -66
v-112c0 -37 30 -66 66 -66zM305 67c0 38 -28 67 -66 67c-37 0 -65 -29 -65 -67c0 -39 28 -67 65 -67c38 0 66 28 66 67z" />
    <glyph glyph-name="questiondown" unicode="&#xbf;" horiz-adv-x="495" 
d="M190 433c0 -38 28 -67 66 -67c37 0 65 29 65 67c0 39 -28 67 -65 67c-38 0 -66 -28 -66 -67zM257 345c-37 0 -67 -29 -67 -66v-56c-38 -11 -73 -32 -100 -59c-41 -41 -65 -98 -65 -154c0 -124 99 -218 229 -218c66 0 128 28 170 77c36 42 52 97 44 147
c-6 36 -40 61 -76 54s-61 -40 -53 -77c7 -33 -43 -69 -85 -69c-58 0 -97 35 -97 86s43 91 100 91c36 0 66 29 66 66v112c0 37 -30 66 -66 66z" />
    <glyph glyph-name="quotedbl" unicode="&#x22;" horiz-adv-x="336" 
d="M89 430c36 0 64 28 64 64v155c0 35 -29 63 -64 63c-36 0 -64 -28 -64 -63v-155c0 -35 28 -64 64 -64zM246 430c37 0 65 28 65 64v155c0 35 -29 63 -65 63c-35 0 -63 -28 -63 -63v-155c0 -35 28 -64 63 -64z" />
    <glyph glyph-name="quotesingle" unicode="'" horiz-adv-x="179" 
d="M90 428c35 0 64 29 64 65v155c0 35 -29 64 -64 64c-36 0 -65 -29 -65 -64v-155c0 -36 29 -65 65 -65z" />
    <glyph glyph-name="semicolon" unicode=";" horiz-adv-x="216" 
d="M37 275c0 -42 30 -74 71 -74c42 0 72 32 72 74s-30 73 -71 73s-72 -32 -72 -73zM141 -172c33 36 50 83 50 136c0 39 -11 82 -28 108c-19 31 -62 39 -91 19c-31 -20 -41 -63 -20 -93c11 -17 7 -62 -9 -78c-24 -27 -24 -69 3 -95c31 -27 72 -22 95 3z" />
    <glyph glyph-name="slash" unicode="/" horiz-adv-x="434" 
d="M153 -36l252 655c13 35 -4 73 -38 87c-35 13 -73 -4 -86 -38l-252 -657c-13 -34 4 -72 38 -85c39 -15 75 6 86 38z" />
    <glyph glyph-name="underscore" unicode="_" horiz-adv-x="669" 
d="M578 -147c36 0 66 30 66 67s-29 67 -66 67h-487c-37 0 -66 -30 -66 -67s30 -67 66 -67h487z" />
    <glyph glyph-name="bracketleft" unicode="[" horiz-adv-x="301" 
d="M209 17c37 0 67 -30 67 -67c0 -36 -30 -65 -67 -67h-117c-37 0 -67 31 -67 67v706c0 12 3 23 9 33c11 20 32 34 57 34h1h117c37 0 66 -31 66 -67c0 -37 -29 -66 -66 -66h-51v-573h51z" />
    <glyph glyph-name="bracketright" unicode="]" horiz-adv-x="301" 
d="M276 656v-706c0 -36 -30 -67 -67 -67h-117c-37 2 -67 31 -67 67c0 37 30 67 67 67h51v573h-51c-37 0 -66 29 -66 66c0 36 29 67 66 67h117h1c25 0 46 -14 57 -34c6 -10 9 -21 9 -33z" />
    <glyph glyph-name="parenleft" unicode="(" horiz-adv-x="365" 
d="M336 -59c9 36 -6 70 -40 85c-30 13 -65 47 -91 96c-32 59 -49 131 -49 204s17 144 49 203c26 50 61 84 91 97c34 15 52 49 40 84c-15 35 -52 51 -85 38c-60 -22 -119 -79 -161 -156c-21 -40 -37 -81 -47 -122c-12 -46 -18 -95 -18 -144c0 -50 6 -97 18 -144
c10 -42 26 -83 47 -122c41 -77 99 -133 161 -157c30 -13 76 3 85 38z" />
    <glyph glyph-name="parenright" unicode=")" horiz-adv-x="365" 
d="M114 -97c62 24 120 80 161 157c21 39 37 80 47 122c12 47 18 94 18 144c0 49 -6 98 -18 144c-10 41 -26 82 -47 122c-42 77 -101 134 -161 156c-33 13 -70 -3 -85 -38c-12 -35 6 -69 40 -84c30 -13 65 -47 91 -97c32 -59 49 -130 49 -203s-17 -145 -49 -204
c-26 -49 -61 -83 -91 -96c-34 -15 -49 -49 -40 -85c9 -35 55 -51 85 -38z" />
    <glyph glyph-name="emdash" unicode="&#x2014;" horiz-adv-x="681" 
d="M588 179c37 0 68 31 68 68c0 38 -30 68 -68 68h-495c-38 0 -68 -30 -68 -68c0 -37 31 -68 68 -68h495z" />
    <glyph glyph-name="endash" unicode="&#x2013;" horiz-adv-x="460" 
d="M369 181c37 0 66 29 66 66c0 36 -30 66 -66 66h-278c-36 0 -66 -30 -66 -66c0 -37 29 -66 66 -66h278z" />
    <glyph glyph-name="hyphen" unicode="-" horiz-adv-x="366" 
d="M275 182c37 0 66 28 66 65c0 36 -30 65 -66 65h-184c-36 0 -66 -29 -66 -65c0 -37 29 -65 66 -65h184z" />
    <glyph glyph-name="quoteleft" unicode="&#x2018;" horiz-adv-x="214" 
d="M108 435c13 0 27 5 36 12c29 18 39 58 18 90c-10 16 -6 60 9 77c26 27 23 68 -4 92c-25 25 -67 24 -92 -2c-31 -35 -48 -80 -50 -134c0 -38 11 -80 28 -106c12 -17 34 -29 55 -29z" />
    <glyph glyph-name="quoteright" unicode="&#x2019;" horiz-adv-x="214" 
d="M106 435c21 0 43 12 55 29c17 26 28 68 28 106c-2 54 -19 99 -50 134c-25 26 -67 27 -92 2c-27 -24 -30 -65 -4 -92c15 -17 19 -61 9 -77c-21 -32 -11 -72 18 -90c9 -7 23 -12 36 -12z" />
    <glyph glyph-name="space" unicode=" " horiz-adv-x="350" 
 />
    <glyph glyph-name="dollar" unicode="$" horiz-adv-x="475" 
d="M450 245c0 -85 -57 -149 -145 -169v-12c0 -36 -29 -65 -64 -65c-36 0 -65 29 -65 65v13c-41 10 -75 28 -101 55c-32 31 -50 75 -50 121c0 35 30 66 65 66c37 0 67 -30 67 -66c0 -9 2 -20 12 -30c2 -2 4 -4 7 -6v88c-68 18 -144 53 -144 158c0 81 58 143 144 162v11
c0 35 29 64 65 64s64 -28 64 -64v-15c73 -21 130 -74 138 -140c4 -37 -23 -68 -58 -72c-37 -5 -56 25 -72 55c-2 4 -5 8 -8 11v-64c69 -18 145 -57 145 -166zM163 463c0 -9 2 -16 13 -21v43c-8 -6 -13 -14 -13 -22zM305 216c9 7 14 17 14 29s-2 21 -14 28v-57z" />
    <glyph glyph-name="plus" unicode="+" horiz-adv-x="512" 
d="M424 318c35 0 63 -29 63 -64s-28 -63 -63 -63h-105v-104c0 -35 -28 -63 -63 -63s-63 28 -63 63v104h-104c-35 0 -64 28 -64 63s29 64 64 64h104v104c0 35 28 63 63 63s63 -28 63 -63v-104h105z" />
    <glyph glyph-name="minus" unicode="&#x2212;" horiz-adv-x="599" 
d="M508 181c36 0 66 30 66 66c0 37 -29 66 -66 66h-417c-37 0 -66 -29 -66 -66c0 -36 30 -66 66 -66h417z" />
    <glyph glyph-name="equal" unicode="=" horiz-adv-x="446" 
d="M358 287c36 0 63 29 63 65c0 35 -28 64 -63 64h-270c-35 0 -63 -29 -63 -64c0 -36 27 -65 63 -65h270zM358 130c36 0 63 28 63 64c0 35 -28 65 -63 65h-270c-35 0 -63 -30 -63 -65c0 -36 27 -64 63 -64h270z" />
    <glyph glyph-name="greater" unicode="&#x3e;" horiz-adv-x="459" 
d="M36 480c-15 -29 -3 -66 29 -81l170 -84l-176 -89c-31 -16 -43 -52 -28 -82c16 -30 52 -42 83 -28l286 146c21 10 34 31 34 55c0 22 -14 44 -35 55l-284 138c-27 12 -63 0 -79 -30z" />
    <glyph glyph-name="less" unicode="&#x3c;" horiz-adv-x="459" 
d="M344 510l-284 -138c-21 -11 -35 -33 -35 -55c0 -24 13 -45 34 -55l286 -146c31 -14 67 -2 83 28c15 30 3 66 -28 82l-176 89l170 84c32 15 44 52 29 81c-16 30 -52 42 -79 30z" />
    <glyph glyph-name="percent" unicode="%" horiz-adv-x="589" 
d="M208 33l282 572c15 32 2 71 -31 88c-31 15 -72 2 -87 -31l-282 -570c-15 -32 -2 -71 30 -87c34 -18 74 0 88 28zM158 435c72 0 133 59 133 132s-61 133 -133 133c-73 0 -133 -61 -133 -133c0 -73 59 -132 133 -132zM159 596c17 0 27 -15 27 -29s-10 -27 -27 -27
c-16 0 -28 11 -28 27s12 29 28 29zM431 14c72 0 133 59 133 132s-61 133 -133 133c-73 0 -133 -61 -133 -133c0 -73 59 -132 133 -132zM432 175c17 0 27 -15 27 -29s-10 -27 -27 -27c-16 0 -28 11 -28 27s12 29 28 29z" />
    <glyph glyph-name="at" unicode="@" horiz-adv-x="942" 
d="M904 380c11 -45 15 -91 13 -136c-3 -81 -26 -161 -65 -223c-45 -76 -109 -120 -175 -120c-42 0 -80 14 -106 41h-1c-11 12 -20 26 -27 42c-32 -16 -70 -27 -114 -27c-118 0 -199 69 -199 169c0 43 20 91 53 124c39 43 98 66 164 66c37 0 77 12 80 17
c-16 58 -114 58 -169 7c-24 -22 -47 -67 -103 -37c-89 48 40 218 210 218c35 0 68 -6 96 -17c28 -12 52 -30 71 -53c29 -34 44 -83 44 -145c1 -107 2 -182 2 -232c-1 -13 0 -21 1 -26c10 2 32 23 48 49c25 43 40 96 43 152c1 34 -2 67 -9 99c-9 36 -22 72 -40 109
c-15 30 -38 56 -69 80c-29 22 -63 39 -100 50c-79 23 -160 18 -226 -14s-114 -86 -139 -153c-23 -69 -20 -141 11 -206c18 -36 3 -81 -34 -98c-36 -18 -80 -3 -99 33c-22 50 -38 107 -40 162s6 109 24 158c18 51 46 98 81 137c37 42 82 75 132 100c97 47 219 55 330 23
c54 -16 105 -41 150 -75c46 -35 84 -79 111 -130c23 -45 40 -93 51 -144zM432 93c53 0 87 41 98 52v32c-25 -6 -53 -9 -83 -9c-40 0 -69 -20 -69 -42c0 -13 17 -33 54 -33z" />
    <glyph glyph-name="asciicircum" unicode="^" horiz-adv-x="378" 
d="M138 403l49 103l53 -104c15 -30 51 -42 80 -28c30 16 42 51 27 81l-108 212c-10 21 -30 33 -53 33c-22 0 -44 -14 -54 -34l-101 -212c-15 -30 -3 -66 27 -80c35 -13 68 2 80 29z" />
    </font>
</defs>
</svg>
